<?xml version="1.0" encoding="UTF-8"?>
<svg xmlns="http://www.w3.org/2000/svg" version="1.1" width="200" height="200" viewBox="0 0 200 200"><rect x="0" y="0" width="200" height="200" fill="#ffffff"/><g transform="scale(6.897)"><g transform="translate(0,0)"><path fill-rule="evenodd" d="M8 0.25L8 0.75A0.25 0.25 0 0 0 8.25 1L9.75 1A0.25 0.25 0 0 0 10 0.75L10 0.25A0.25 0.25 0 0 0 9.75 0L8.25 0A0.25 0.25 0 0 0 8 0.25ZM14 0.25L14 0.75A0.25 0.25 0 0 1 13.75 1L13.25 1A0.25 0.25 0 0 0 13 1.25L13 1.75A0.25 0.25 0 0 1 12.75 2L11.25 2A0.25 0.25 0 0 0 11 2.25L11 3.75A0.25 0.25 0 0 1 10.75 4L10.25 4A0.25 0.25 0 0 1 10 3.75L10 3.25A0.25 0.25 0 0 0 9.75 3L9.25 3A0.25 0.25 0 0 1 9 2.75L9 2.25A0.25 0.25 0 0 0 8.75 2L8.25 2A0.25 0.25 0 0 0 8 2.25L8 4.75A0.25 0.25 0 0 0 8.25 5L8.75 5A0.25 0.25 0 0 1 9 5.25L9 5.75A0.25 0.25 0 0 1 8.75 6L8.25 6A0.25 0.25 0 0 0 8 6.25L8 6.75A0.25 0.25 0 0 0 8.25 7L8.75 7A0.25 0.25 0 0 1 9 7.25L9 7.75A0.25 0.25 0 0 1 8.75 8L8.25 8A0.25 0.25 0 0 0 8 8.25L8 12.75A0.25 0.25 0 0 1 7.75 13L7.25 13A0.25 0.25 0 0 1 7 12.75L7 12.25A0.25 0.25 0 0 0 6.75 12L6.25 12A0.25 0.25 0 0 0 6 12.25L6 12.75A0.25 0.25 0 0 0 6.25 13L6.75 13A0.25 0.25 0 0 1 7 13.25L7 13.75A0.25 0.25 0 0 1 6.75 14L5.25 14A0.25 0.25 0 0 0 5 14.25L5 14.75A0.25 0.25 0 0 0 5.25 15L7.75 15A0.25 0.25 0 0 0 8 14.75L8 14.25A0.25 0.25 0 0 1 8.25 14L8.75 14A0.25 0.25 0 0 0 9 13.75L9 13.25A0.25 0.25 0 0 1 9.25 13L9.75 13A0.25 0.25 0 0 1 10 13.25L10 14.75A0.25 0.25 0 0 1 9.75 15L9.25 15A0.25 0.25 0 0 0 9 15.25L9 15.75A0.25 0.25 0 0 0 9.25 16L9.75 16A0.25 0.25 0 0 1 10 16.25L10 16.75A0.25 0.25 0 0 1 9.75 17L8.25 17A0.25 0.25 0 0 1 8 16.75L8 16.25A0.25 0.25 0 0 0 7.75 16L5.25 16A0.25 0.25 0 0 0 5 16.25L5 18.75A0.25 0.25 0 0 1 4.75 19L4.25 19A0.25 0.25 0 0 0 4 19.25L4 19.75A0.25 0.25 0 0 1 3.75 20L3.25 20A0.25 0.25 0 0 1 3 19.75L3 19.25A0.25 0.25 0 0 0 2.75 19L2.25 19A0.25 0.25 0 0 0 2 19.25L2 19.75A0.25 0.25 0 0 1 1.75 20L1.25 20A0.25 0.25 0 0 0 1 20.25L1 20.75A0.25 0.25 0 0 0 1.25 21L3.75 21A0.25 0.25 0 0 0 4 20.75L4 20.25A0.25 0.25 0 0 1 4.25 20L4.75 20A0.25 0.25 0 0 1 5 20.25L5 20.75A0.25 0.25 0 0 0 5.25 21L6.75 21A0.25 0.25 0 0 0 7 20.75L7 20.25A0.25 0.25 0 0 1 7.25 20L7.75 20A0.25 0.25 0 0 1 8 20.25L8 21.75A0.25 0.25 0 0 0 8.25 22L8.75 22A0.25 0.25 0 0 1 9 22.25L9 23.75A0.25 0.25 0 0 0 9.25 24L9.75 24A0.25 0.25 0 0 0 10 23.75L10 23.25A0.25 0.25 0 0 1 10.25 23L10.75 23A0.25 0.25 0 0 1 11 23.25L11 23.75A0.25 0.25 0 0 0 11.25 24L11.75 24A0.25 0.25 0 0 0 12 23.75L12 22.25A0.25 0.25 0 0 1 12.25 22L12.75 22A0.25 0.25 0 0 1 13 22.25L13 24.75A0.25 0.25 0 0 0 13.25 25L13.75 25A0.25 0.25 0 0 1 14 25.25L14 25.75A0.25 0.25 0 0 1 13.75 26L12.25 26A0.25 0.25 0 0 0 12 26.25L12 26.75A0.25 0.25 0 0 0 12.25 27L13.75 27A0.25 0.25 0 0 1 14 27.25L14 27.75A0.25 0.25 0 0 1 13.75 28L13.25 28A0.25 0.25 0 0 0 13 28.25L13 28.75A0.25 0.25 0 0 0 13.25 29L14.75 29A0.25 0.25 0 0 0 15 28.75L15 27.25A0.25 0.25 0 0 0 14.75 27L14.25 27A0.25 0.25 0 0 1 14 26.75L14 26.25A0.25 0.25 0 0 1 14.25 26L15.75 26A0.25 0.25 0 0 0 16 25.75L16 25.25A0.25 0.25 0 0 0 15.75 25L15.25 25A0.25 0.25 0 0 1 15 24.75L15 24.25A0.25 0.25 0 0 0 14.75 24L14.25 24A0.25 0.25 0 0 1 14 23.75L14 21.25A0.25 0.25 0 0 1 14.25 21L14.75 21A0.25 0.25 0 0 0 15 20.75L15 20.25A0.25 0.25 0 0 0 14.75 20L14.25 20A0.25 0.25 0 0 0 14 20.25L14 20.75A0.25 0.25 0 0 1 13.75 21L13.25 21A0.25 0.25 0 0 1 13 20.75L13 20.25A0.25 0.25 0 0 0 12.75 20L12.25 20A0.25 0.25 0 0 1 12 19.75L12 19.25A0.25 0.25 0 0 1 12.25 19L12.75 19A0.25 0.25 0 0 0 13 18.75L13 18.25A0.25 0.25 0 0 1 13.25 18L13.75 18A0.25 0.25 0 0 0 14 17.75L14 16.25A0.25 0.25 0 0 0 13.75 16L13.25 16A0.25 0.25 0 0 1 13 15.75L13 15.25A0.25 0.25 0 0 1 13.25 15L14.75 15A0.25 0.25 0 0 0 15 14.75L15 14.25A0.25 0.25 0 0 1 15.25 14L17.75 14A0.25 0.25 0 0 1 18 14.25L18 17.75A0.25 0.25 0 0 0 18.25 18L18.75 18A0.25 0.25 0 0 0 19 17.75L19 15.25A0.25 0.25 0 0 1 19.25 15L19.75 15A0.25 0.25 0 0 0 20 14.75L20 14.25A0.25 0.25 0 0 1 20.25 14L20.75 14A0.25 0.25 0 0 1 21 14.25L21 14.75A0.25 0.25 0 0 0 21.25 15L21.75 15A0.25 0.25 0 0 1 22 15.25L22 15.75A0.25 0.25 0 0 1 21.75 16L21.25 16A0.25 0.25 0 0 0 21 16.25L21 18.75A0.25 0.25 0 0 1 20.75 19L20.25 19A0.25 0.25 0 0 0 20 19.25L20 20.75A0.25 0.25 0 0 1 19.75 21L19.25 21A0.25 0.25 0 0 1 19 20.75L19 19.25A0.25 0.25 0 0 0 18.75 19L16.25 19A0.25 0.25 0 0 1 16 18.75L16 16.25A0.25 0.25 0 0 1 16.25 16L16.75 16A0.25 0.25 0 0 0 17 15.75L17 15.25A0.25 0.25 0 0 0 16.75 15L16.25 15A0.25 0.25 0 0 0 16 15.25L16 15.75A0.25 0.25 0 0 1 15.75 16L15.25 16A0.25 0.25 0 0 0 15 16.25L15 18.75A0.25 0.25 0 0 0 15.25 19L15.75 19A0.25 0.25 0 0 1 16 19.25L16 19.75A0.25 0.25 0 0 0 16.25 20L16.75 20A0.25 0.25 0 0 1 17 20.25L17 20.75A0.25 0.25 0 0 1 16.75 21L16.25 21A0.25 0.25 0 0 0 16 21.25L16 22.75A0.25 0.25 0 0 0 16.25 23L16.75 23A0.25 0.25 0 0 0 17 22.75L17 21.25A0.25 0.25 0 0 1 17.25 21L17.75 21A0.25 0.25 0 0 1 18 21.25L18 21.75A0.25 0.25 0 0 0 18.25 22L18.75 22A0.25 0.25 0 0 1 19 22.25L19 22.75A0.25 0.25 0 0 1 18.75 23L18.25 23A0.25 0.25 0 0 0 18 23.25L18 23.75A0.25 0.25 0 0 1 17.75 24L17.25 24A0.25 0.25 0 0 0 17 24.25L17 25.75A0.25 0.25 0 0 0 17.25 26L17.75 26A0.25 0.25 0 0 1 18 26.25L18 28.75A0.25 0.25 0 0 0 18.25 29L18.75 29A0.25 0.25 0 0 0 19 28.75L19 28.25A0.25 0.25 0 0 1 19.25 28L19.75 28A0.25 0.25 0 0 1 20 28.25L20 28.75A0.25 0.25 0 0 0 20.25 29L20.75 29A0.25 0.25 0 0 0 21 28.75L21 27.25A0.25 0.25 0 0 1 21.25 27L21.75 27A0.25 0.25 0 0 0 22 26.75L22 25.25A0.25 0.25 0 0 1 22.25 25L22.75 25A0.25 0.25 0 0 1 23 25.25L23 27.75A0.25 0.25 0 0 0 23.25 28L23.75 28A0.25 0.25 0 0 1 24 28.25L24 28.75A0.25 0.25 0 0 0 24.25 29L24.75 29A0.25 0.25 0 0 0 25 28.75L25 28.25A0.25 0.25 0 0 1 25.25 28L25.75 28A0.25 0.25 0 0 0 26 27.75L26 25.25A0.25 0.25 0 0 1 26.25 25L26.75 25A0.25 0.25 0 0 0 27 24.75L27 24.25A0.25 0.25 0 0 1 27.25 24L27.75 24A0.25 0.25 0 0 1 28 24.25L28 26.75A0.25 0.25 0 0 1 27.75 27L27.25 27A0.25 0.25 0 0 0 27 27.25L27 28.75A0.25 0.25 0 0 0 27.25 29L27.75 29A0.25 0.25 0 0 0 28 28.75L28 27.25A0.25 0.25 0 0 1 28.25 27L28.75 27A0.25 0.25 0 0 0 29 26.75L29 24.25A0.25 0.25 0 0 0 28.75 24L28.25 24A0.25 0.25 0 0 1 28 23.75L28 22.25A0.25 0.25 0 0 1 28.25 22L28.75 22A0.25 0.25 0 0 0 29 21.75L29 21.25A0.25 0.25 0 0 0 28.75 21L27.25 21A0.25 0.25 0 0 1 27 20.75L27 18.25A0.25 0.25 0 0 1 27.25 18L27.75 18A0.25 0.25 0 0 0 28 17.75L28 15.25A0.25 0.25 0 0 1 28.25 15L28.75 15A0.25 0.25 0 0 0 29 14.75L29 13.25A0.25 0.25 0 0 0 28.75 13L27.25 13A0.25 0.25 0 0 1 27 12.75L27 12.25A0.25 0.25 0 0 0 26.75 12L26.25 12A0.25 0.25 0 0 1 26 11.75L26 11.25A0.25 0.25 0 0 1 26.25 11L27.75 11A0.25 0.25 0 0 1 28 11.25L28 11.75A0.25 0.25 0 0 0 28.25 12L28.75 12A0.25 0.25 0 0 0 29 11.75L29 11.25A0.25 0.25 0 0 0 28.75 11L28.25 11A0.25 0.25 0 0 1 28 10.75L28 10.25A0.25 0.25 0 0 1 28.25 10L28.75 10A0.25 0.25 0 0 0 29 9.75L29 8.25A0.25 0.25 0 0 0 28.75 8L28.25 8A0.25 0.25 0 0 0 28 8.25L28 9.75A0.25 0.25 0 0 1 27.75 10L26.25 10A0.25 0.25 0 0 0 26 10.25L26 10.75A0.25 0.25 0 0 1 25.75 11L24.25 11A0.25 0.25 0 0 1 24 10.75L24 10.25A0.25 0.25 0 0 1 24.25 10L24.75 10A0.25 0.25 0 0 0 25 9.75L25 9.25A0.25 0.25 0 0 1 25.25 9L26.75 9A0.25 0.25 0 0 0 27 8.75L27 8.25A0.25 0.25 0 0 0 26.75 8L24.25 8A0.25 0.25 0 0 0 24 8.25L24 8.75A0.25 0.25 0 0 1 23.75 9L22.25 9A0.25 0.25 0 0 1 22 8.75L22 8.25A0.25 0.25 0 0 0 21.75 8L21.25 8A0.25 0.25 0 0 1 21 7.75L21 6.25A0.25 0.25 0 0 0 20.75 6L20.25 6A0.25 0.25 0 0 1 20 5.75L20 5.25A0.25 0.25 0 0 1 20.25 5L20.75 5A0.25 0.25 0 0 0 21 4.75L21 4.25A0.25 0.25 0 0 0 20.75 4L20.25 4A0.25 0.25 0 0 1 20 3.75L20 3.25A0.25 0.25 0 0 1 20.25 3L20.75 3A0.25 0.25 0 0 0 21 2.75L21 2.25A0.25 0.25 0 0 0 20.75 2L20.25 2A0.25 0.25 0 0 0 20 2.25L20 2.75A0.25 0.25 0 0 1 19.75 3L19.25 3A0.25 0.25 0 0 0 19 3.25L19 3.75A0.25 0.25 0 0 1 18.75 4L18.25 4A0.25 0.25 0 0 1 18 3.75L18 3.25A0.25 0.25 0 0 0 17.75 3L17.25 3A0.25 0.25 0 0 0 17 3.25L17 5.75A0.25 0.25 0 0 1 16.75 6L16.25 6A0.25 0.25 0 0 0 16 6.25L16 6.75A0.25 0.25 0 0 1 15.75 7L15.25 7A0.25 0.25 0 0 1 15 6.75L15 6.25A0.25 0.25 0 0 0 14.75 6L14.25 6A0.25 0.25 0 0 1 14 5.75L14 5.25A0.25 0.25 0 0 1 14.25 5L15.75 5A0.25 0.25 0 0 0 16 4.75L16 4.25A0.25 0.25 0 0 0 15.75 4L15.25 4A0.25 0.25 0 0 1 15 3.75L15 3.25A0.25 0.25 0 0 1 15.25 3L15.75 3A0.25 0.25 0 0 0 16 2.75L16 2.25A0.25 0.25 0 0 1 16.25 2L17.75 2A0.25 0.25 0 0 0 18 1.75L18 1.25A0.25 0.25 0 0 0 17.75 1L17.25 1A0.25 0.25 0 0 1 17 0.75L17 0.25A0.25 0.25 0 0 0 16.75 0L14.25 0A0.25 0.25 0 0 0 14 0.25ZM19 0.25L19 0.75A0.25 0.25 0 0 0 19.25 1L20.75 1A0.25 0.25 0 0 0 21 0.75L21 0.25A0.25 0.25 0 0 0 20.75 0L19.25 0A0.25 0.25 0 0 0 19 0.25ZM15 1.25L15 1.75A0.25 0.25 0 0 0 15.25 2L15.75 2A0.25 0.25 0 0 0 16 1.75L16 1.25A0.25 0.25 0 0 0 15.75 1L15.25 1A0.25 0.25 0 0 0 15 1.25ZM12 3.25L12 4.75A0.25 0.25 0 0 1 11.75 5L10.25 5A0.25 0.25 0 0 0 10 5.25L10 5.75A0.25 0.25 0 0 1 9.75 6L9.25 6A0.25 0.25 0 0 0 9 6.25L9 6.75A0.25 0.25 0 0 0 9.25 7L9.75 7A0.25 0.25 0 0 1 10 7.25L10 7.75A0.25 0.25 0 0 1 9.75 8L9.25 8A0.25 0.25 0 0 0 9 8.25L9 8.75A0.25 0.25 0 0 0 9.25 9L9.75 9A0.25 0.25 0 0 1 10 9.25L10 9.75A0.25 0.25 0 0 1 9.75 10L9.25 10A0.25 0.25 0 0 0 9 10.25L9 11.75A0.25 0.25 0 0 0 9.25 12L9.75 12A0.25 0.25 0 0 1 10 12.25L10 12.75A0.25 0.25 0 0 0 10.25 13L10.75 13A0.25 0.25 0 0 0 11 12.75L11 11.25A0.25 0.25 0 0 1 11.25 11L12.75 11A0.25 0.25 0 0 0 13 10.75L13 9.25A0.25 0.25 0 0 1 13.25 9L13.75 9A0.25 0.25 0 0 1 14 9.25L14 11.75A0.25 0.25 0 0 0 14.25 12L14.75 12A0.25 0.25 0 0 1 15 12.25L15 12.75A0.25 0.25 0 0 1 14.75 13L12.25 13A0.25 0.25 0 0 0 12 13.25L12 13.75A0.25 0.25 0 0 1 11.75 14L11.25 14A0.25 0.25 0 0 0 11 14.25L11 14.75A0.25 0.25 0 0 1 10.75 15L10.25 15A0.25 0.25 0 0 0 10 15.25L10 15.75A0.25 0.25 0 0 0 10.25 16L11.75 16A0.25 0.25 0 0 1 12 16.25L12 16.75A0.25 0.25 0 0 1 11.75 17L10.25 17A0.25 0.25 0 0 0 10 17.25L10 19.75A0.25 0.25 0 0 0 10.25 20L10.75 20A0.25 0.25 0 0 1 11 20.25L11 20.75A0.25 0.25 0 0 0 11.25 21L11.75 21A0.25 0.25 0 0 0 12 20.75L12 20.25A0.25 0.25 0 0 0 11.75 20L11.25 20A0.25 0.25 0 0 1 11 19.75L11 19.25A0.25 0.25 0 0 1 11.25 19L11.75 19A0.25 0.25 0 0 0 12 18.75L12 17.25A0.25 0.25 0 0 1 12.25 17L12.75 17A0.25 0.25 0 0 0 13 16.75L13 16.25A0.25 0.25 0 0 0 12.75 16L12.25 16A0.25 0.25 0 0 1 12 15.75L12 14.25A0.25 0.25 0 0 1 12.25 14L14.75 14A0.25 0.25 0 0 0 15 13.75L15 13.25A0.25 0.25 0 0 1 15.25 13L16.75 13A0.25 0.25 0 0 0 17 12.75L17 12.25A0.25 0.25 0 0 1 17.25 12L17.75 12A0.25 0.25 0 0 1 18 12.25L18 13.75A0.25 0.25 0 0 0 18.25 14L18.75 14A0.25 0.25 0 0 0 19 13.75L19 13.25A0.25 0.25 0 0 1 19.25 13L19.75 13A0.25 0.25 0 0 0 20 12.75L20 12.25A0.25 0.25 0 0 1 20.25 12L20.75 12A0.25 0.25 0 0 1 21 12.25L21 13.75A0.25 0.25 0 0 0 21.25 14L21.75 14A0.25 0.25 0 0 1 22 14.25L22 14.75A0.25 0.25 0 0 0 22.25 15L22.75 15A0.25 0.25 0 0 1 23 15.25L23 15.75A0.25 0.25 0 0 1 22.75 16L22.25 16A0.25 0.25 0 0 0 22 16.25L22 18.75A0.25 0.25 0 0 0 22.25 19L22.75 19A0.25 0.25 0 0 0 23 18.75L23 16.25A0.25 0.25 0 0 1 23.25 16L23.75 16A0.25 0.25 0 0 0 24 15.75L24 15.25A0.25 0.25 0 0 1 24.25 15L24.75 15A0.25 0.25 0 0 1 25 15.25L25 16.75A0.25 0.25 0 0 1 24.75 17L24.25 17A0.25 0.25 0 0 0 24 17.25L24 19.75A0.25 0.25 0 0 0 24.25 20L25.75 20A0.25 0.25 0 0 0 26 19.75L26 19.25A0.25 0.25 0 0 0 25.75 19L25.25 19A0.25 0.25 0 0 1 25 18.75L25 18.25A0.25 0.25 0 0 1 25.25 18L25.75 18A0.25 0.25 0 0 0 26 17.75L26 17.25A0.25 0.25 0 0 1 26.25 17L26.75 17A0.25 0.25 0 0 0 27 16.75L27 15.25A0.25 0.25 0 0 0 26.75 15L25.25 15A0.25 0.25 0 0 1 25 14.75L25 14.25A0.25 0.25 0 0 1 25.25 14L26.75 14A0.25 0.25 0 0 0 27 13.75L27 13.25A0.25 0.25 0 0 0 26.75 13L25.25 13A0.25 0.25 0 0 1 25 12.75L25 12.25A0.25 0.25 0 0 0 24.75 12L22.25 12A0.25 0.25 0 0 1 22 11.75L22 10.25A0.25 0.25 0 0 0 21.75 10L21.25 10A0.25 0.25 0 0 1 21 9.75L21 9.25A0.25 0.25 0 0 0 20.75 9L20.25 9A0.25 0.25 0 0 0 20 9.25L20 9.75A0.25 0.25 0 0 1 19.75 10L19.25 10A0.25 0.25 0 0 0 19 10.25L19 10.75A0.25 0.25 0 0 0 19.25 11L19.75 11A0.25 0.25 0 0 1 20 11.25L20 11.75A0.25 0.25 0 0 1 19.75 12L18.25 12A0.25 0.25 0 0 1 18 11.75L18 10.25A0.25 0.25 0 0 0 17.75 10L17.25 10A0.25 0.25 0 0 0 17 10.25L17 11.75A0.25 0.25 0 0 1 16.75 12L15.25 12A0.25 0.25 0 0 1 15 11.75L15 11.25A0.25 0.25 0 0 1 15.25 11L15.75 11A0.25 0.25 0 0 0 16 10.75L16 9.25A0.25 0.25 0 0 0 15.75 9L14.25 9A0.25 0.25 0 0 1 14 8.75L14 8.25A0.25 0.25 0 0 1 14.25 8L14.75 8A0.25 0.25 0 0 0 15 7.75L15 7.25A0.25 0.25 0 0 0 14.75 7L14.25 7A0.25 0.25 0 0 1 14 6.75L14 6.25A0.25 0.25 0 0 0 13.75 6L13.25 6A0.25 0.25 0 0 0 13 6.25L13 6.75A0.25 0.25 0 0 1 12.75 7L12.25 7A0.25 0.25 0 0 1 12 6.75L12 5.25A0.25 0.25 0 0 1 12.25 5L13.75 5A0.25 0.25 0 0 0 14 4.75L14 4.25A0.25 0.25 0 0 0 13.75 4L13.25 4A0.25 0.25 0 0 1 13 3.75L13 3.25A0.25 0.25 0 0 0 12.75 3L12.25 3A0.25 0.25 0 0 0 12 3.25ZM18 5.25L18 5.75A0.25 0.25 0 0 1 17.75 6L17.25 6A0.25 0.25 0 0 0 17 6.25L17 6.75A0.25 0.25 0 0 0 17.25 7L17.75 7A0.25 0.25 0 0 1 18 7.25L18 7.75A0.25 0.25 0 0 0 18.25 8L19.75 8A0.25 0.25 0 0 0 20 7.75L20 6.25A0.25 0.25 0 0 0 19.75 6L19.25 6A0.25 0.25 0 0 1 19 5.75L19 5.25A0.25 0.25 0 0 0 18.75 5L18.25 5A0.25 0.25 0 0 0 18 5.25ZM10 6.25L10 6.75A0.25 0.25 0 0 0 10.25 7L10.75 7A0.25 0.25 0 0 1 11 7.25L11 7.75A0.25 0.25 0 0 0 11.25 8L11.75 8A0.25 0.25 0 0 0 12 7.75L12 7.25A0.25 0.25 0 0 0 11.75 7L11.25 7A0.25 0.25 0 0 1 11 6.75L11 6.25A0.25 0.25 0 0 0 10.75 6L10.25 6A0.25 0.25 0 0 0 10 6.25ZM18 6.25L18 6.75A0.25 0.25 0 0 0 18.25 7L18.75 7A0.25 0.25 0 0 0 19 6.75L19 6.25A0.25 0.25 0 0 0 18.75 6L18.25 6A0.25 0.25 0 0 0 18 6.25ZM0 8.25L0 8.75A0.25 0.25 0 0 0 0.25 9L0.75 9A0.25 0.25 0 0 1 1 9.25L1 9.75A0.25 0.25 0 0 1 0.75 10L0.25 10A0.25 0.25 0 0 0 0 10.25L0 10.75A0.25 0.25 0 0 0 0.25 11L0.75 11A0.25 0.25 0 0 0 1 10.75L1 10.25A0.25 0.25 0 0 1 1.25 10L1.75 10A0.25 0.25 0 0 0 2 9.75L2 9.25A0.25 0.25 0 0 1 2.25 9L2.75 9A0.25 0.25 0 0 1 3 9.25L3 9.75A0.25 0.25 0 0 0 3.25 10L3.75 10A0.25 0.25 0 0 1 4 10.25L4 10.75A0.25 0.25 0 0 1 3.75 11L3.25 11A0.25 0.25 0 0 0 3 11.25L3 11.75A0.25 0.25 0 0 0 3.25 12L3.75 12A0.25 0.25 0 0 1 4 12.25L4 12.75A0.25 0.25 0 0 1 3.75 13L3.25 13A0.25 0.25 0 0 0 3 13.25L3 13.75A0.25 0.25 0 0 1 2.75 14L2.25 14A0.25 0.25 0 0 1 2 13.75L2 13.25A0.25 0.25 0 0 0 1.75 13L1.25 13A0.25 0.25 0 0 1 1 12.75L1 12.25A0.25 0.25 0 0 0 0.75 12L0.25 12A0.25 0.25 0 0 0 0 12.25L0 13.75A0.25 0.25 0 0 0 0.25 14L1.75 14A0.25 0.25 0 0 1 2 14.25L2 14.75A0.25 0.25 0 0 0 2.25 15L3.75 15A0.25 0.25 0 0 0 4 14.75L4 13.25A0.25 0.25 0 0 1 4.25 13L4.75 13A0.25 0.25 0 0 0 5 12.75L5 12.25A0.25 0.25 0 0 0 4.75 12L4.25 12A0.25 0.25 0 0 1 4 11.75L4 11.25A0.25 0.25 0 0 1 4.25 11L6.75 11A0.25 0.25 0 0 0 7 10.75L7 10.25A0.25 0.25 0 0 0 6.75 10L5.25 10A0.25 0.25 0 0 1 5 9.75L5 9.25A0.25 0.25 0 0 0 4.75 9L4.25 9A0.25 0.25 0 0 1 4 8.75L4 8.25A0.25 0.25 0 0 0 3.75 8L0.25 8A0.25 0.25 0 0 0 0 8.25ZM6 8.25L6 8.75A0.25 0.25 0 0 0 6.25 9L6.75 9A0.25 0.25 0 0 0 7 8.75L7 8.25A0.25 0.25 0 0 0 6.75 8L6.25 8A0.25 0.25 0 0 0 6 8.25ZM20 10.25L20 10.75A0.25 0.25 0 0 0 20.25 11L20.75 11A0.25 0.25 0 0 0 21 10.75L21 10.25A0.25 0.25 0 0 0 20.75 10L20.25 10A0.25 0.25 0 0 0 20 10.25ZM22 13.25L22 13.75A0.25 0.25 0 0 0 22.25 14L22.75 14A0.25 0.25 0 0 1 23 14.25L23 14.75A0.25 0.25 0 0 0 23.25 15L23.75 15A0.25 0.25 0 0 0 24 14.75L24 14.25A0.25 0.25 0 0 0 23.75 14L23.25 14A0.25 0.25 0 0 1 23 13.75L23 13.25A0.25 0.25 0 0 0 22.75 13L22.25 13A0.25 0.25 0 0 0 22 13.25ZM0 15.25L0 16.75A0.25 0.25 0 0 0 0.25 17L2.75 17A0.25 0.25 0 0 1 3 17.25L3 17.75A0.25 0.25 0 0 0 3.25 18L3.75 18A0.25 0.25 0 0 0 4 17.75L4 17.25A0.25 0.25 0 0 0 3.75 17L3.25 17A0.25 0.25 0 0 1 3 16.75L3 16.25A0.25 0.25 0 0 0 2.75 16L1.25 16A0.25 0.25 0 0 1 1 15.75L1 15.25A0.25 0.25 0 0 0 0.75 15L0.25 15A0.25 0.25 0 0 0 0 15.25ZM6 17.25L6 17.75A0.25 0.25 0 0 0 6.25 18L6.75 18A0.25 0.25 0 0 1 7 18.25L7 18.75A0.25 0.25 0 0 1 6.75 19L5.25 19A0.25 0.25 0 0 0 5 19.25L5 19.75A0.25 0.25 0 0 0 5.25 20L6.75 20A0.25 0.25 0 0 0 7 19.75L7 19.25A0.25 0.25 0 0 1 7.25 19L7.75 19A0.25 0.25 0 0 1 8 19.25L8 19.75A0.25 0.25 0 0 0 8.25 20L8.75 20A0.25 0.25 0 0 0 9 19.75L9 18.25A0.25 0.25 0 0 0 8.75 18L7.25 18A0.25 0.25 0 0 1 7 17.75L7 17.25A0.25 0.25 0 0 0 6.75 17L6.25 17A0.25 0.25 0 0 0 6 17.25ZM0 18.25L0 18.75A0.25 0.25 0 0 0 0.25 19L0.75 19A0.25 0.25 0 0 0 1 18.75L1 18.25A0.25 0.25 0 0 0 0.75 18L0.25 18A0.25 0.25 0 0 0 0 18.25ZM9 21.25L9 21.75A0.25 0.25 0 0 0 9.25 22L9.75 22A0.25 0.25 0 0 0 10 21.75L10 21.25A0.25 0.25 0 0 0 9.75 21L9.25 21A0.25 0.25 0 0 0 9 21.25ZM21 21.25L21 23.75A0.25 0.25 0 0 0 21.25 24L23.75 24A0.25 0.25 0 0 0 24 23.75L24 21.25A0.25 0.25 0 0 0 23.75 21L21.25 21A0.25 0.25 0 0 0 21 21.25ZM22 22.25L22 22.75A0.25 0.25 0 0 0 22.25 23L22.75 23A0.25 0.25 0 0 0 23 22.75L23 22.25A0.25 0.25 0 0 0 22.75 22L22.25 22A0.25 0.25 0 0 0 22 22.25ZM26 22.25L26 22.75A0.25 0.25 0 0 1 25.75 23L25.25 23A0.25 0.25 0 0 0 25 23.25L25 24.75A0.25 0.25 0 0 0 25.25 25L25.75 25A0.25 0.25 0 0 0 26 24.75L26 24.25A0.25 0.25 0 0 1 26.25 24L26.75 24A0.25 0.25 0 0 0 27 23.75L27 22.25A0.25 0.25 0 0 0 26.75 22L26.25 22A0.25 0.25 0 0 0 26 22.25ZM18 24.25L18 24.75A0.25 0.25 0 0 0 18.25 25L18.75 25A0.25 0.25 0 0 1 19 25.25L19 25.75A0.25 0.25 0 0 0 19.25 26L20.75 26A0.25 0.25 0 0 0 21 25.75L21 25.25A0.25 0.25 0 0 0 20.75 25L20.25 25A0.25 0.25 0 0 1 20 24.75L20 24.25A0.25 0.25 0 0 0 19.75 24L18.25 24A0.25 0.25 0 0 0 18 24.25ZM8 25.25L8 28.75A0.25 0.25 0 0 0 8.25 29L11.75 29A0.25 0.25 0 0 0 12 28.75L12 28.25A0.25 0.25 0 0 0 11.75 28L9.25 28A0.25 0.25 0 0 1 9 27.75L9 27.25A0.25 0.25 0 0 1 9.25 27L10.75 27A0.25 0.25 0 0 0 11 26.75L11 26.25A0.25 0.25 0 0 0 10.75 26L10.25 26A0.25 0.25 0 0 1 10 25.75L10 25.25A0.25 0.25 0 0 0 9.75 25L8.25 25A0.25 0.25 0 0 0 8 25.25ZM24 26.25L24 27.75A0.25 0.25 0 0 0 24.25 28L24.75 28A0.25 0.25 0 0 0 25 27.75L25 26.25A0.25 0.25 0 0 0 24.75 26L24.25 26A0.25 0.25 0 0 0 24 26.25ZM16 28.25L16 28.75A0.25 0.25 0 0 0 16.25 29L16.75 29A0.25 0.25 0 0 0 17 28.75L17 28.25A0.25 0.25 0 0 0 16.75 28L16.25 28A0.25 0.25 0 0 0 16 28.25ZM0 0L7 0L7 7L0 7ZM1 1L1 6L6 6L6 1ZM5 3.5A1.5 1.5 0 0 1 3.5 5A1.5 1.5 0 0 1 2 3.5A1.5 1.5 0 0 1 3.5 2A1.5 1.5 0 0 1 5 3.5ZM22 0L29 0L29 7L22 7ZM23 1L23 6L28 6L28 1ZM27 3.5A1.5 1.5 0 0 1 25.5 5A1.5 1.5 0 0 1 24 3.5A1.5 1.5 0 0 1 25.5 2A1.5 1.5 0 0 1 27 3.5ZM0 22L7 22L7 29L0 29ZM1 23L1 28L6 28L6 23ZM5 25.5A1.5 1.5 0 0 1 3.5 27A1.5 1.5 0 0 1 2 25.5A1.5 1.5 0 0 1 3.5 24A1.5 1.5 0 0 1 5 25.5Z" fill="#000000"/></g></g></svg>
