<?xml version="1.0" encoding="UTF-8"?>
<svg xmlns="http://www.w3.org/2000/svg" version="1.1" width="200" height="200" viewBox="0 0 200 200"><rect x="0" y="0" width="200" height="200" fill="#ffffff"/><g transform="scale(6.897)"><g transform="translate(0,0)"><path fill-rule="evenodd" d="M9 0.25L9 0.75A0.25 0.25 0 0 1 8.75 1L8.25 1A0.25 0.25 0 0 0 8 1.25L8 1.75A0.25 0.25 0 0 0 8.25 2L8.75 2A0.25 0.25 0 0 1 9 2.25L9 2.75A0.25 0.25 0 0 1 8.75 3L8.25 3A0.25 0.25 0 0 0 8 3.25L8 3.75A0.25 0.25 0 0 0 8.25 4L9.75 4A0.25 0.25 0 0 1 10 4.25L10 6.75A0.25 0.25 0 0 0 10.25 7L10.75 7A0.25 0.25 0 0 0 11 6.75L11 4.25A0.25 0.25 0 0 1 11.25 4L11.75 4A0.25 0.25 0 0 1 12 4.25L12 4.75A0.25 0.25 0 0 0 12.25 5L12.75 5A0.25 0.25 0 0 1 13 5.25L13 5.75A0.25 0.25 0 0 1 12.75 6L12.25 6A0.25 0.25 0 0 0 12 6.25L12 8.75A0.25 0.25 0 0 0 12.25 9L12.75 9A0.25 0.25 0 0 0 13 8.75L13 6.25A0.25 0.25 0 0 1 13.25 6L13.75 6A0.25 0.25 0 0 1 14 6.25L14 9.75A0.25 0.25 0 0 1 13.75 10L12.25 10A0.25 0.25 0 0 0 12 10.25L12 11.75A0.25 0.25 0 0 0 12.25 12L12.75 12A0.25 0.25 0 0 1 13 12.25L13 12.75A0.25 0.25 0 0 1 12.75 13L10.25 13A0.25 0.25 0 0 1 10 12.75L10 12.25A0.25 0.25 0 0 1 10.25 12L10.75 12A0.25 0.25 0 0 0 11 11.75L11 11.25A0.25 0.25 0 0 0 10.75 11L10.25 11A0.25 0.25 0 0 1 10 10.75L10 9.25A0.25 0.25 0 0 1 10.25 9L10.75 9A0.25 0.25 0 0 0 11 8.75L11 8.25A0.25 0.25 0 0 0 10.75 8L6.25 8A0.25 0.25 0 0 0 6 8.25L6 8.75A0.25 0.25 0 0 1 5.75 9L5.25 9A0.25 0.25 0 0 1 5 8.75L5 8.25A0.25 0.25 0 0 0 4.75 8L0.25 8A0.25 0.25 0 0 0 0 8.25L0 13.75A0.25 0.25 0 0 0 0.25 14L0.75 14A0.25 0.25 0 0 0 1 13.75L1 13.25A0.25 0.25 0 0 1 1.25 13L2.75 13A0.25 0.25 0 0 0 3 12.75L3 12.25A0.25 0.25 0 0 1 3.25 12L3.75 12A0.25 0.25 0 0 1 4 12.25L4 12.75A0.25 0.25 0 0 0 4.25 13L4.75 13A0.25 0.25 0 0 1 5 13.25L5 13.75A0.25 0.25 0 0 1 4.75 14L2.25 14A0.25 0.25 0 0 0 2 14.25L2 14.75A0.25 0.25 0 0 1 1.75 15L0.25 15A0.25 0.25 0 0 0 0 15.25L0 20.75A0.25 0.25 0 0 0 0.25 21L0.75 21A0.25 0.25 0 0 0 1 20.75L1 16.25A0.25 0.25 0 0 1 1.25 16L1.75 16A0.25 0.25 0 0 0 2 15.75L2 15.25A0.25 0.25 0 0 1 2.25 15L4.75 15A0.25 0.25 0 0 0 5 14.75L5 14.25A0.25 0.25 0 0 1 5.25 14L5.75 14A0.25 0.25 0 0 1 6 14.25L6 14.75A0.25 0.25 0 0 0 6.25 15L6.75 15A0.25 0.25 0 0 1 7 15.25L7 15.75A0.25 0.25 0 0 1 6.75 16L6.25 16A0.25 0.25 0 0 0 6 16.25L6 16.75A0.25 0.25 0 0 0 6.25 17L6.75 17A0.25 0.25 0 0 1 7 17.25L7 17.75A0.25 0.25 0 0 1 6.75 18L6.25 18A0.25 0.25 0 0 0 6 18.25L6 18.75A0.25 0.25 0 0 0 6.25 19L7.75 19A0.25 0.25 0 0 0 8 18.75L8 18.25A0.25 0.25 0 0 1 8.25 18L8.75 18A0.25 0.25 0 0 1 9 18.25L9 18.75A0.25 0.25 0 0 0 9.25 19L9.75 19A0.25 0.25 0 0 1 10 19.25L10 19.75A0.25 0.25 0 0 1 9.75 20L9.25 20A0.25 0.25 0 0 0 9 20.25L9 20.75A0.25 0.25 0 0 1 8.75 21L8.25 21A0.25 0.25 0 0 0 8 21.25L8 22.75A0.25 0.25 0 0 0 8.25 23L8.75 23A0.25 0.25 0 0 0 9 22.75L9 22.25A0.25 0.25 0 0 1 9.25 22L9.75 22A0.25 0.25 0 0 1 10 22.25L10 24.75A0.25 0.25 0 0 0 10.25 25L10.75 25A0.25 0.25 0 0 1 11 25.25L11 25.75A0.25 0.25 0 0 0 11.25 26L11.75 26A0.25 0.25 0 0 1 12 26.25L12 26.75A0.25 0.25 0 0 1 11.75 27L11.25 27A0.25 0.25 0 0 0 11 27.25L11 28.75A0.25 0.25 0 0 0 11.25 29L17.75 29A0.25 0.25 0 0 0 18 28.75L18 28.25A0.25 0.25 0 0 1 18.25 28L20.75 28A0.25 0.25 0 0 1 21 28.25L21 28.75A0.25 0.25 0 0 0 21.25 29L21.75 29A0.25 0.25 0 0 0 22 28.75L22 28.25A0.25 0.25 0 0 0 21.75 28L21.25 28A0.25 0.25 0 0 1 21 27.75L21 25.25A0.25 0.25 0 0 1 21.25 25L24.75 25A0.25 0.25 0 0 1 25 25.25L25 25.75A0.25 0.25 0 0 1 24.75 26L22.25 26A0.25 0.25 0 0 0 22 26.25L22 26.75A0.25 0.25 0 0 0 22.25 27L22.75 27A0.25 0.25 0 0 1 23 27.25L23 28.75A0.25 0.25 0 0 0 23.25 29L23.75 29A0.25 0.25 0 0 0 24 28.75L24 27.25A0.25 0.25 0 0 1 24.25 27L24.75 27A0.25 0.25 0 0 1 25 27.25L25 27.75A0.25 0.25 0 0 0 25.25 28L25.75 28A0.25 0.25 0 0 1 26 28.25L26 28.75A0.25 0.25 0 0 0 26.25 29L26.75 29A0.25 0.25 0 0 0 27 28.75L27 28.25A0.25 0.25 0 0 1 27.25 28L27.75 28A0.25 0.25 0 0 0 28 27.75L28 26.25A0.25 0.25 0 0 1 28.25 26L28.75 26A0.25 0.25 0 0 0 29 25.75L29 25.25A0.25 0.25 0 0 0 28.75 25L28.25 25A0.25 0.25 0 0 1 28 24.75L28 24.25A0.25 0.25 0 0 0 27.75 24L26.25 24A0.25 0.25 0 0 1 26 23.75L26 23.25A0.25 0.25 0 0 1 26.25 23L26.75 23A0.25 0.25 0 0 0 27 22.75L27 22.25A0.25 0.25 0 0 1 27.25 22L28.75 22A0.25 0.25 0 0 0 29 21.75L29 20.25A0.25 0.25 0 0 0 28.75 20L28.25 20A0.25 0.25 0 0 1 28 19.75L28 19.25A0.25 0.25 0 0 0 27.75 19L27.25 19A0.25 0.25 0 0 1 27 18.75L27 16.25A0.25 0.25 0 0 1 27.25 16L27.75 16A0.25 0.25 0 0 0 28 15.75L28 15.25A0.25 0.25 0 0 0 27.75 15L27.25 15A0.25 0.25 0 0 1 27 14.75L27 12.25A0.25 0.25 0 0 1 27.25 12L27.75 12A0.25 0.25 0 0 0 28 11.75L28 11.25A0.25 0.25 0 0 0 27.75 11L27.25 11A0.25 0.25 0 0 0 27 11.25L27 11.75A0.25 0.25 0 0 1 26.75 12L25.25 12A0.25 0.25 0 0 0 25 12.25L25 12.75A0.25 0.25 0 0 1 24.75 13L21.25 13A0.25 0.25 0 0 1 21 12.75L21 12.25A0.25 0.25 0 0 1 21.25 12L21.75 12A0.25 0.25 0 0 0 22 11.75L22 11.25A0.25 0.25 0 0 1 22.25 11L22.75 11A0.25 0.25 0 0 1 23 11.25L23 11.75A0.25 0.25 0 0 0 23.25 12L23.75 12A0.25 0.25 0 0 0 24 11.75L24 11.25A0.25 0.25 0 0 1 24.25 11L24.75 11A0.25 0.25 0 0 0 25 10.75L25 9.25A0.25 0.25 0 0 1 25.25 9L25.75 9A0.25 0.25 0 0 0 26 8.75L26 8.25A0.25 0.25 0 0 0 25.75 8L25.25 8A0.25 0.25 0 0 0 25 8.25L25 8.75A0.25 0.25 0 0 1 24.75 9L24.25 9A0.25 0.25 0 0 1 24 8.75L24 8.25A0.25 0.25 0 0 0 23.75 8L23.25 8A0.25 0.25 0 0 0 23 8.25L23 8.75A0.25 0.25 0 0 1 22.75 9L22.25 9A0.25 0.25 0 0 1 22 8.75L22 8.25A0.25 0.25 0 0 0 21.75 8L20.25 8A0.25 0.25 0 0 0 20 8.25L20 8.75A0.25 0.25 0 0 1 19.75 9L18.25 9A0.25 0.25 0 0 1 18 8.75L18 8.25A0.25 0.25 0 0 1 18.25 8L18.75 8A0.25 0.25 0 0 0 19 7.75L19 5.25A0.25 0.25 0 0 1 19.25 5L19.75 5A0.25 0.25 0 0 0 20 4.75L20 3.25A0.25 0.25 0 0 1 20.25 3L20.75 3A0.25 0.25 0 0 0 21 2.75L21 0.25A0.25 0.25 0 0 0 20.75 0L19.25 0A0.25 0.25 0 0 0 19 0.25L19 0.75A0.25 0.25 0 0 1 18.75 1L18.25 1A0.25 0.25 0 0 0 18 1.25L18 2.75A0.25 0.25 0 0 1 17.75 3L17.25 3A0.25 0.25 0 0 1 17 2.75L17 2.25A0.25 0.25 0 0 0 16.75 2L16.25 2A0.25 0.25 0 0 1 16 1.75L16 1.25A0.25 0.25 0 0 1 16.25 1L16.75 1A0.25 0.25 0 0 0 17 0.75L17 0.25A0.25 0.25 0 0 0 16.75 0L16.25 0A0.25 0.25 0 0 0 16 0.25L16 0.75A0.25 0.25 0 0 1 15.75 1L11.25 1A0.25 0.25 0 0 0 11 1.25L11 1.75A0.25 0.25 0 0 1 10.75 2L10.25 2A0.25 0.25 0 0 1 10 1.75L10 0.25A0.25 0.25 0 0 0 9.75 0L9.25 0A0.25 0.25 0 0 0 9 0.25ZM19 1.25L19 1.75A0.25 0.25 0 0 0 19.25 2L19.75 2A0.25 0.25 0 0 0 20 1.75L20 1.25A0.25 0.25 0 0 0 19.75 1L19.25 1A0.25 0.25 0 0 0 19 1.25ZM12 2.25L12 2.75A0.25 0.25 0 0 0 12.25 3L13.75 3A0.25 0.25 0 0 1 14 3.25L14 4.75A0.25 0.25 0 0 0 14.25 5L15.75 5A0.25 0.25 0 0 0 16 4.75L16 4.25A0.25 0.25 0 0 1 16.25 4L16.75 4A0.25 0.25 0 0 1 17 4.25L17 4.75A0.25 0.25 0 0 0 17.25 5L18.75 5A0.25 0.25 0 0 0 19 4.75L19 3.25A0.25 0.25 0 0 0 18.75 3L18.25 3A0.25 0.25 0 0 0 18 3.25L18 3.75A0.25 0.25 0 0 1 17.75 4L17.25 4A0.25 0.25 0 0 1 17 3.75L17 3.25A0.25 0.25 0 0 0 16.75 3L16.25 3A0.25 0.25 0 0 1 16 2.75L16 2.25A0.25 0.25 0 0 0 15.75 2L15.25 2A0.25 0.25 0 0 0 15 2.25L15 2.75A0.25 0.25 0 0 1 14.75 3L14.25 3A0.25 0.25 0 0 1 14 2.75L14 2.25A0.25 0.25 0 0 0 13.75 2L12.25 2A0.25 0.25 0 0 0 12 2.25ZM10 3.25L10 3.75A0.25 0.25 0 0 0 10.25 4L10.75 4A0.25 0.25 0 0 0 11 3.75L11 3.25A0.25 0.25 0 0 0 10.75 3L10.25 3A0.25 0.25 0 0 0 10 3.25ZM8 5.25L8 6.75A0.25 0.25 0 0 0 8.25 7L8.75 7A0.25 0.25 0 0 0 9 6.75L9 5.25A0.25 0.25 0 0 0 8.75 5L8.25 5A0.25 0.25 0 0 0 8 5.25ZM15 6.25L15 6.75A0.25 0.25 0 0 0 15.25 7L15.75 7A0.25 0.25 0 0 1 16 7.25L16 8.75A0.25 0.25 0 0 1 15.75 9L15.25 9A0.25 0.25 0 0 0 15 9.25L15 9.75A0.25 0.25 0 0 1 14.75 10L14.25 10A0.25 0.25 0 0 0 14 10.25L14 10.75A0.25 0.25 0 0 1 13.75 11L13.25 11A0.25 0.25 0 0 0 13 11.25L13 11.75A0.25 0.25 0 0 0 13.25 12L13.75 12A0.25 0.25 0 0 0 14 11.75L14 11.25A0.25 0.25 0 0 1 14.25 11L14.75 11A0.25 0.25 0 0 0 15 10.75L15 10.25A0.25 0.25 0 0 1 15.25 10L15.75 10A0.25 0.25 0 0 1 16 10.25L16 10.75A0.25 0.25 0 0 0 16.25 11L16.75 11A0.25 0.25 0 0 1 17 11.25L17 11.75A0.25 0.25 0 0 1 16.75 12L16.25 12A0.25 0.25 0 0 0 16 12.25L16 12.75A0.25 0.25 0 0 1 15.75 13L13.25 13A0.25 0.25 0 0 0 13 13.25L13 15.75A0.25 0.25 0 0 1 12.75 16L10.25 16A0.25 0.25 0 0 1 10 15.75L10 15.25A0.25 0.25 0 0 1 10.25 15L11.75 15A0.25 0.25 0 0 0 12 14.75L12 14.25A0.25 0.25 0 0 0 11.75 14L10.25 14A0.25 0.25 0 0 1 10 13.75L10 13.25A0.25 0.25 0 0 0 9.75 13L9.25 13A0.25 0.25 0 0 1 9 12.75L9 12.25A0.25 0.25 0 0 0 8.75 12L8.25 12A0.25 0.25 0 0 0 8 12.25L8 12.75A0.25 0.25 0 0 0 8.25 13L8.75 13A0.25 0.25 0 0 1 9 13.25L9 14.75A0.25 0.25 0 0 1 8.75 15L8.25 15A0.25 0.25 0 0 0 8 15.25L8 15.75A0.25 0.25 0 0 1 7.75 16L7.25 16A0.25 0.25 0 0 0 7 16.25L7 16.75A0.25 0.25 0 0 0 7.25 17L7.75 17A0.25 0.25 0 0 0 8 16.75L8 16.25A0.25 0.25 0 0 1 8.25 16L9.75 16A0.25 0.25 0 0 1 10 16.25L10 16.75A0.25 0.25 0 0 0 10.25 17L12.75 17A0.25 0.25 0 0 0 13 16.75L13 16.25A0.25 0.25 0 0 1 13.25 16L13.75 16A0.25 0.25 0 0 0 14 15.75L14 15.25A0.25 0.25 0 0 1 14.25 15L14.75 15A0.25 0.25 0 0 0 15 14.75L15 14.25A0.25 0.25 0 0 1 15.25 14L15.75 14A0.25 0.25 0 0 0 16 13.75L16 13.25A0.25 0.25 0 0 1 16.25 13L16.75 13A0.25 0.25 0 0 1 17 13.25L17 15.75A0.25 0.25 0 0 0 17.25 16L17.75 16A0.25 0.25 0 0 1 18 16.25L18 16.75A0.25 0.25 0 0 1 17.75 17L17.25 17A0.25 0.25 0 0 0 17 17.25L17 19.75A0.25 0.25 0 0 1 16.75 20L16.25 20A0.25 0.25 0 0 1 16 19.75L16 19.25A0.25 0.25 0 0 0 15.75 19L13.25 19A0.25 0.25 0 0 1 13 18.75L13 18.25A0.25 0.25 0 0 0 12.75 18L10.25 18A0.25 0.25 0 0 0 10 18.25L10 18.75A0.25 0.25 0 0 0 10.25 19L10.75 19A0.25 0.25 0 0 1 11 19.25L11 20.75A0.25 0.25 0 0 1 10.75 21L10.25 21A0.25 0.25 0 0 0 10 21.25L10 21.75A0.25 0.25 0 0 0 10.25 22L10.75 22A0.25 0.25 0 0 1 11 22.25L11 24.75A0.25 0.25 0 0 0 11.25 25L11.75 25A0.25 0.25 0 0 1 12 25.25L12 25.75A0.25 0.25 0 0 0 12.25 26L12.75 26A0.25 0.25 0 0 1 13 26.25L13 26.75A0.25 0.25 0 0 1 12.75 27L12.25 27A0.25 0.25 0 0 0 12 27.25L12 27.75A0.25 0.25 0 0 0 12.25 28L13.75 28A0.25 0.25 0 0 0 14 27.75L14 27.25A0.25 0.25 0 0 1 14.25 27L14.75 27A0.25 0.25 0 0 1 15 27.25L15 27.75A0.25 0.25 0 0 0 15.25 28L17.75 28A0.25 0.25 0 0 0 18 27.75L18 27.25A0.25 0.25 0 0 1 18.25 27L19.75 27A0.25 0.25 0 0 0 20 26.75L20 23.25A0.25 0.25 0 0 0 19.75 23L17.25 23A0.25 0.25 0 0 0 17 23.25L17 23.75A0.25 0.25 0 0 1 16.75 24L15.25 24A0.25 0.25 0 0 1 15 23.75L15 23.25A0.25 0.25 0 0 0 14.75 23L14.25 23A0.25 0.25 0 0 1 14 22.75L14 21.25A0.25 0.25 0 0 0 13.75 21L13.25 21A0.25 0.25 0 0 0 13 21.25L13 21.75A0.25 0.25 0 0 1 12.75 22L11.25 22A0.25 0.25 0 0 1 11 21.75L11 21.25A0.25 0.25 0 0 1 11.25 21L11.75 21A0.25 0.25 0 0 0 12 20.75L12 20.25A0.25 0.25 0 0 1 12.25 20L15.75 20A0.25 0.25 0 0 1 16 20.25L16 20.75A0.25 0.25 0 0 1 15.75 21L15.25 21A0.25 0.25 0 0 0 15 21.25L15 21.75A0.25 0.25 0 0 0 15.25 22L15.75 22A0.25 0.25 0 0 0 16 21.75L16 21.25A0.25 0.25 0 0 1 16.25 21L16.75 21A0.25 0.25 0 0 1 17 21.25L17 21.75A0.25 0.25 0 0 0 17.25 22L17.75 22A0.25 0.25 0 0 0 18 21.75L18 21.25A0.25 0.25 0 0 1 18.25 21L18.75 21A0.25 0.25 0 0 0 19 20.75L19 20.25A0.25 0.25 0 0 1 19.25 20L21.75 20A0.25 0.25 0 0 0 22 19.75L22 19.25A0.25 0.25 0 0 1 22.25 19L22.75 19A0.25 0.25 0 0 1 23 19.25L23 19.75A0.25 0.25 0 0 0 23.25 20L23.75 20A0.25 0.25 0 0 0 24 19.75L24 19.25A0.25 0.25 0 0 1 24.25 19L24.75 19A0.25 0.25 0 0 1 25 19.25L25 20.75A0.25 0.25 0 0 0 25.25 21L25.75 21A0.25 0.25 0 0 0 26 20.75L26 20.25A0.25 0.25 0 0 1 26.25 20L26.75 20A0.25 0.25 0 0 0 27 19.75L27 19.25A0.25 0.25 0 0 0 26.75 19L25.25 19A0.25 0.25 0 0 1 25 18.75L25 18.25A0.25 0.25 0 0 0 24.75 18L24.25 18A0.25 0.25 0 0 0 24 18.25L24 18.75A0.25 0.25 0 0 1 23.75 19L23.25 19A0.25 0.25 0 0 1 23 18.75L23 18.25A0.25 0.25 0 0 0 22.75 18L22.25 18A0.25 0.25 0 0 1 22 17.75L22 17.25A0.25 0.25 0 0 1 22.25 17L25.75 17A0.25 0.25 0 0 0 26 16.75L26 16.25A0.25 0.25 0 0 1 26.25 16L26.75 16A0.25 0.25 0 0 0 27 15.75L27 15.25A0.25 0.25 0 0 0 26.75 15L26.25 15A0.25 0.25 0 0 1 26 14.75L26 13.25A0.25 0.25 0 0 0 25.75 13L25.25 13A0.25 0.25 0 0 0 25 13.25L25 15.75A0.25 0.25 0 0 1 24.75 16L24.25 16A0.25 0.25 0 0 1 24 15.75L24 15.25A0.25 0.25 0 0 0 23.75 15L23.25 15A0.25 0.25 0 0 0 23 15.25L23 15.75A0.25 0.25 0 0 1 22.75 16L22.25 16A0.25 0.25 0 0 1 22 15.75L22 14.25A0.25 0.25 0 0 0 21.75 14L21.25 14A0.25 0.25 0 0 1 21 13.75L21 13.25A0.25 0.25 0 0 0 20.75 13L20.25 13A0.25 0.25 0 0 1 20 12.75L20 12.25A0.25 0.25 0 0 1 20.25 12L20.75 12A0.25 0.25 0 0 0 21 11.75L21 9.25A0.25 0.25 0 0 0 20.75 9L20.25 9A0.25 0.25 0 0 0 20 9.25L20 9.75A0.25 0.25 0 0 1 19.75 10L18.25 10A0.25 0.25 0 0 0 18 10.25L18 10.75A0.25 0.25 0 0 1 17.75 11L17.25 11A0.25 0.25 0 0 1 17 10.75L17 10.25A0.25 0.25 0 0 0 16.75 10L16.25 10A0.25 0.25 0 0 1 16 9.75L16 9.25A0.25 0.25 0 0 1 16.25 9L16.75 9A0.25 0.25 0 0 0 17 8.75L17 8.25A0.25 0.25 0 0 1 17.25 8L17.75 8A0.25 0.25 0 0 0 18 7.75L18 6.25A0.25 0.25 0 0 0 17.75 6L17.25 6A0.25 0.25 0 0 0 17 6.25L17 6.75A0.25 0.25 0 0 1 16.75 7L16.25 7A0.25 0.25 0 0 1 16 6.75L16 6.25A0.25 0.25 0 0 0 15.75 6L15.25 6A0.25 0.25 0 0 0 15 6.25ZM20 6.25L20 6.75A0.25 0.25 0 0 0 20.25 7L20.75 7A0.25 0.25 0 0 0 21 6.75L21 6.25A0.25 0.25 0 0 0 20.75 6L20.25 6A0.25 0.25 0 0 0 20 6.25ZM27 8.25L27 8.75A0.25 0.25 0 0 0 27.25 9L27.75 9A0.25 0.25 0 0 1 28 9.25L28 9.75A0.25 0.25 0 0 0 28.25 10L28.75 10A0.25 0.25 0 0 0 29 9.75L29 9.25A0.25 0.25 0 0 0 28.75 9L28.25 9A0.25 0.25 0 0 1 28 8.75L28 8.25A0.25 0.25 0 0 0 27.75 8L27.25 8A0.25 0.25 0 0 0 27 8.25ZM1 9.25L1 9.75A0.25 0.25 0 0 0 1.25 10L1.75 10A0.25 0.25 0 0 1 2 10.25L2 11.75A0.25 0.25 0 0 0 2.25 12L2.75 12A0.25 0.25 0 0 0 3 11.75L3 11.25A0.25 0.25 0 0 1 3.25 11L3.75 11A0.25 0.25 0 0 0 4 10.75L4 10.25A0.25 0.25 0 0 0 3.75 10L3.25 10A0.25 0.25 0 0 1 3 9.75L3 9.25A0.25 0.25 0 0 0 2.75 9L1.25 9A0.25 0.25 0 0 0 1 9.25ZM6 9.25L6 9.75A0.25 0.25 0 0 0 6.25 10L6.75 10A0.25 0.25 0 0 1 7 10.25L7 10.75A0.25 0.25 0 0 1 6.75 11L5.25 11A0.25 0.25 0 0 0 5 11.25L5 12.75A0.25 0.25 0 0 0 5.25 13L5.75 13A0.25 0.25 0 0 1 6 13.25L6 13.75A0.25 0.25 0 0 0 6.25 14L6.75 14A0.25 0.25 0 0 0 7 13.75L7 13.25A0.25 0.25 0 0 0 6.75 13L6.25 13A0.25 0.25 0 0 1 6 12.75L6 12.25A0.25 0.25 0 0 1 6.25 12L6.75 12A0.25 0.25 0 0 0 7 11.75L7 11.25A0.25 0.25 0 0 1 7.25 11L8.75 11A0.25 0.25 0 0 0 9 10.75L9 9.25A0.25 0.25 0 0 0 8.75 9L8.25 9A0.25 0.25 0 0 0 8 9.25L8 9.75A0.25 0.25 0 0 1 7.75 10L7.25 10A0.25 0.25 0 0 1 7 9.75L7 9.25A0.25 0.25 0 0 0 6.75 9L6.25 9A0.25 0.25 0 0 0 6 9.25ZM23 10.25L23 10.75A0.25 0.25 0 0 0 23.25 11L23.75 11A0.25 0.25 0 0 0 24 10.75L24 10.25A0.25 0.25 0 0 0 23.75 10L23.25 10A0.25 0.25 0 0 0 23 10.25ZM17 12.25L17 12.75A0.25 0.25 0 0 0 17.25 13L17.75 13A0.25 0.25 0 0 1 18 13.25L18 13.75A0.25 0.25 0 0 0 18.25 14L19.75 14A0.25 0.25 0 0 0 20 13.75L20 13.25A0.25 0.25 0 0 0 19.75 13L18.25 13A0.25 0.25 0 0 1 18 12.75L18 12.25A0.25 0.25 0 0 0 17.75 12L17.25 12A0.25 0.25 0 0 0 17 12.25ZM28 13.25L28 13.75A0.25 0.25 0 0 0 28.25 14L28.75 14A0.25 0.25 0 0 0 29 13.75L29 13.25A0.25 0.25 0 0 0 28.75 13L28.25 13A0.25 0.25 0 0 0 28 13.25ZM18 15.25L18 15.75A0.25 0.25 0 0 0 18.25 16L18.75 16A0.25 0.25 0 0 0 19 15.75L19 15.25A0.25 0.25 0 0 0 18.75 15L18.25 15A0.25 0.25 0 0 0 18 15.25ZM3 16.25L3 18.75A0.25 0.25 0 0 0 3.25 19L3.75 19A0.25 0.25 0 0 1 4 19.25L4 20.75A0.25 0.25 0 0 0 4.25 21L6.75 21A0.25 0.25 0 0 0 7 20.75L7 20.25A0.25 0.25 0 0 0 6.75 20L5.25 20A0.25 0.25 0 0 1 5 19.75L5 18.25A0.25 0.25 0 0 0 4.75 18L4.25 18A0.25 0.25 0 0 1 4 17.75L4 16.25A0.25 0.25 0 0 0 3.75 16L3.25 16A0.25 0.25 0 0 0 3 16.25ZM20 16.25L20 16.75A0.25 0.25 0 0 1 19.75 17L19.25 17A0.25 0.25 0 0 0 19 17.25L19 17.75A0.25 0.25 0 0 0 19.25 18L19.75 18A0.25 0.25 0 0 0 20 17.75L20 17.25A0.25 0.25 0 0 1 20.25 17L20.75 17A0.25 0.25 0 0 0 21 16.75L21 16.25A0.25 0.25 0 0 0 20.75 16L20.25 16A0.25 0.25 0 0 0 20 16.25ZM14 17.25L14 17.75A0.25 0.25 0 0 0 14.25 18L15.75 18A0.25 0.25 0 0 0 16 17.75L16 17.25A0.25 0.25 0 0 0 15.75 17L14.25 17A0.25 0.25 0 0 0 14 17.25ZM28 17.25L28 17.75A0.25 0.25 0 0 0 28.25 18L28.75 18A0.25 0.25 0 0 0 29 17.75L29 17.25A0.25 0.25 0 0 0 28.75 17L28.25 17A0.25 0.25 0 0 0 28 17.25ZM21 18.25L21 18.75A0.25 0.25 0 0 0 21.25 19L21.75 19A0.25 0.25 0 0 0 22 18.75L22 18.25A0.25 0.25 0 0 0 21.75 18L21.25 18A0.25 0.25 0 0 0 21 18.25ZM2 20.25L2 20.75A0.25 0.25 0 0 0 2.25 21L2.75 21A0.25 0.25 0 0 0 3 20.75L3 20.25A0.25 0.25 0 0 0 2.75 20L2.25 20A0.25 0.25 0 0 0 2 20.25ZM17 20.25L17 20.75A0.25 0.25 0 0 0 17.25 21L17.75 21A0.25 0.25 0 0 0 18 20.75L18 20.25A0.25 0.25 0 0 0 17.75 20L17.25 20A0.25 0.25 0 0 0 17 20.25ZM21 21.25L21 23.75A0.25 0.25 0 0 0 21.25 24L23.75 24A0.25 0.25 0 0 0 24 23.75L24 21.25A0.25 0.25 0 0 0 23.75 21L21.25 21A0.25 0.25 0 0 0 21 21.25ZM22 22.25L22 22.75A0.25 0.25 0 0 0 22.25 23L22.75 23A0.25 0.25 0 0 0 23 22.75L23 22.25A0.25 0.25 0 0 0 22.75 22L22.25 22A0.25 0.25 0 0 0 22 22.25ZM12 23.25L12 24.75A0.25 0.25 0 0 0 12.25 25L14.75 25A0.25 0.25 0 0 0 15 24.75L15 24.25A0.25 0.25 0 0 0 14.75 24L13.25 24A0.25 0.25 0 0 1 13 23.75L13 23.25A0.25 0.25 0 0 0 12.75 23L12.25 23A0.25 0.25 0 0 0 12 23.25ZM8 24.25L8 28.75A0.25 0.25 0 0 0 8.25 29L9.75 29A0.25 0.25 0 0 0 10 28.75L10 27.25A0.25 0.25 0 0 0 9.75 27L9.25 27A0.25 0.25 0 0 1 9 26.75L9 24.25A0.25 0.25 0 0 0 8.75 24L8.25 24A0.25 0.25 0 0 0 8 24.25ZM17 24.25L17 24.75A0.25 0.25 0 0 0 17.25 25L17.75 25A0.25 0.25 0 0 0 18 24.75L18 24.25A0.25 0.25 0 0 0 17.75 24L17.25 24A0.25 0.25 0 0 0 17 24.25ZM25 24.25L25 24.75A0.25 0.25 0 0 0 25.25 25L25.75 25A0.25 0.25 0 0 0 26 24.75L26 24.25A0.25 0.25 0 0 0 25.75 24L25.25 24A0.25 0.25 0 0 0 25 24.25ZM27 25.25L27 25.75A0.25 0.25 0 0 1 26.75 26L25.25 26A0.25 0.25 0 0 0 25 26.25L25 26.75A0.25 0.25 0 0 0 25.25 27L25.75 27A0.25 0.25 0 0 1 26 27.25L26 27.75A0.25 0.25 0 0 0 26.25 28L26.75 28A0.25 0.25 0 0 0 27 27.75L27 26.25A0.25 0.25 0 0 1 27.25 26L27.75 26A0.25 0.25 0 0 0 28 25.75L28 25.25A0.25 0.25 0 0 0 27.75 25L27.25 25A0.25 0.25 0 0 0 27 25.25ZM15 26.25L15 26.75A0.25 0.25 0 0 0 15.25 27L16.75 27A0.25 0.25 0 0 0 17 26.75L17 26.25A0.25 0.25 0 0 0 16.75 26L15.25 26A0.25 0.25 0 0 0 15 26.25ZM0 0L7 0L7 7L0 7ZM1 1L1 6L6 6L6 1ZM5 3.5A1.5 1.5 0 0 1 3.5 5A1.5 1.5 0 0 1 2 3.5A1.5 1.5 0 0 1 3.5 2A1.5 1.5 0 0 1 5 3.5ZM22 0L29 0L29 7L22 7ZM23 1L23 6L28 6L28 1ZM27 3.5A1.5 1.5 0 0 1 25.5 5A1.5 1.5 0 0 1 24 3.5A1.5 1.5 0 0 1 25.5 2A1.5 1.5 0 0 1 27 3.5ZM0 22L7 22L7 29L0 29ZM1 23L1 28L6 28L6 23ZM5 25.5A1.5 1.5 0 0 1 3.5 27A1.5 1.5 0 0 1 2 25.5A1.5 1.5 0 0 1 3.5 24A1.5 1.5 0 0 1 5 25.5Z" fill="#000000"/></g></g></svg>
