<?xml version="1.0" encoding="UTF-8"?>
<svg xmlns="http://www.w3.org/2000/svg" version="1.1" width="200" height="200" viewBox="0 0 200 200"><rect x="0" y="0" width="200" height="200" fill="#ffffff"/><g transform="scale(6.061)"><g transform="translate(0,0)"><path fill-rule="evenodd" d="M10 0.25L10 1.75A0.25 0.25 0 0 0 10.25 2L10.75 2A0.25 0.25 0 0 0 11 1.75L11 0.25A0.25 0.25 0 0 0 10.75 0L10.25 0A0.25 0.25 0 0 0 10 0.25ZM12 0.25L12 0.75A0.25 0.25 0 0 0 12.25 1L12.75 1A0.25 0.25 0 0 1 13 1.25L13 1.75A0.25 0.25 0 0 1 12.75 2L12.25 2A0.25 0.25 0 0 0 12 2.25L12 3.75A0.25 0.25 0 0 0 12.25 4L12.75 4A0.25 0.25 0 0 0 13 3.75L13 3.25A0.25 0.25 0 0 1 13.25 3L13.75 3A0.25 0.25 0 0 1 14 3.25L14 3.75A0.25 0.25 0 0 0 14.25 4L14.75 4A0.25 0.25 0 0 0 15 3.75L15 3.25A0.25 0.25 0 0 1 15.25 3L15.75 3A0.25 0.25 0 0 1 16 3.25L16 3.75A0.25 0.25 0 0 0 16.25 4L16.75 4A0.25 0.25 0 0 1 17 4.25L17 4.75A0.25 0.25 0 0 0 17.25 5L17.75 5A0.25 0.25 0 0 1 18 5.25L18 7.75A0.25 0.25 0 0 1 17.75 8L15.25 8A0.25 0.25 0 0 1 15 7.75L15 6.25A0.25 0.25 0 0 1 15.25 6L15.75 6A0.25 0.25 0 0 1 16 6.25L16 6.75A0.25 0.25 0 0 0 16.25 7L16.75 7A0.25 0.25 0 0 0 17 6.75L17 6.25A0.25 0.25 0 0 0 16.75 6L16.25 6A0.25 0.25 0 0 1 16 5.75L16 5.25A0.25 0.25 0 0 0 15.75 5L15.25 5A0.25 0.25 0 0 0 15 5.25L15 5.75A0.25 0.25 0 0 1 14.75 6L14.25 6A0.25 0.25 0 0 0 14 6.25L14 7.75A0.25 0.25 0 0 0 14.25 8L14.75 8A0.25 0.25 0 0 1 15 8.25L15 8.75A0.25 0.25 0 0 1 14.75 9L12.25 9A0.25 0.25 0 0 1 12 8.75L12 7.25A0.25 0.25 0 0 1 12.25 7L12.75 7A0.25 0.25 0 0 0 13 6.75L13 5.25A0.25 0.25 0 0 0 12.75 5L11.25 5A0.25 0.25 0 0 0 11 5.25L11 5.75A0.25 0.25 0 0 1 10.75 6L10.25 6A0.25 0.25 0 0 1 10 5.75L10 4.25A0.25 0.25 0 0 1 10.25 4L10.75 4A0.25 0.25 0 0 0 11 3.75L11 3.25A0.25 0.25 0 0 0 10.75 3L8.25 3A0.25 0.25 0 0 0 8 3.25L8 3.75A0.25 0.25 0 0 0 8.25 4L8.75 4A0.25 0.25 0 0 1 9 4.25L9 4.75A0.25 0.25 0 0 1 8.75 5L8.25 5A0.25 0.25 0 0 0 8 5.25L8 6.75A0.25 0.25 0 0 0 8.25 7L8.75 7A0.25 0.25 0 0 1 9 7.25L9 7.75A0.25 0.25 0 0 1 8.75 8L6.25 8A0.25 0.25 0 0 0 6 8.25L6 8.75A0.25 0.25 0 0 0 6.25 9L9.75 9A0.25 0.25 0 0 1 10 9.25L10 10.75A0.25 0.25 0 0 0 10.25 11L10.75 11A0.25 0.25 0 0 0 11 10.75L11 9.25A0.25 0.25 0 0 1 11.25 9L11.75 9A0.25 0.25 0 0 1 12 9.25L12 9.75A0.25 0.25 0 0 0 12.25 10L12.75 10A0.25 0.25 0 0 1 13 10.25L13 10.75A0.25 0.25 0 0 1 12.75 11L12.25 11A0.25 0.25 0 0 0 12 11.25L12 12.75A0.25 0.25 0 0 0 12.25 13L12.75 13A0.25 0.25 0 0 0 13 12.75L13 12.25A0.25 0.25 0 0 1 13.25 12L13.75 12A0.25 0.25 0 0 1 14 12.25L14 12.75A0.25 0.25 0 0 0 14.25 13L15.75 13A0.25 0.25 0 0 0 16 12.75L16 12.25A0.25 0.25 0 0 1 16.25 12L16.75 12A0.25 0.25 0 0 1 17 12.25L17 12.75A0.25 0.25 0 0 0 17.25 13L18.75 13A0.25 0.25 0 0 1 19 13.25L19 13.75A0.25 0.25 0 0 1 18.75 14L17.25 14A0.25 0.25 0 0 0 17 14.25L17 14.75A0.25 0.25 0 0 0 17.25 15L17.75 15A0.25 0.25 0 0 1 18 15.25L18 15.75A0.25 0.25 0 0 1 17.75 16L16.25 16A0.25 0.25 0 0 1 16 15.75L16 14.25A0.25 0.25 0 0 0 15.75 14L15.25 14A0.25 0.25 0 0 0 15 14.25L15 14.75A0.25 0.25 0 0 1 14.75 15L14.25 15A0.25 0.25 0 0 0 14 15.25L14 15.75A0.25 0.25 0 0 0 14.25 16L14.75 16A0.25 0.25 0 0 1 15 16.25L15 16.75A0.25 0.25 0 0 1 14.75 17L12.25 17A0.25 0.25 0 0 1 12 16.75L12 15.25A0.25 0.25 0 0 1 12.25 15L12.75 15A0.25 0.25 0 0 0 13 14.75L13 14.25A0.25 0.25 0 0 0 12.75 14L11.25 14A0.25 0.25 0 0 0 11 14.25L11 14.75A0.25 0.25 0 0 1 10.75 15L10.25 15A0.25 0.25 0 0 0 10 15.25L10 15.75A0.25 0.25 0 0 0 10.25 16L10.75 16A0.25 0.25 0 0 1 11 16.25L11 16.75A0.25 0.25 0 0 1 10.75 17L10.25 17A0.25 0.25 0 0 0 10 17.25L10 17.75A0.25 0.25 0 0 0 10.25 18L10.75 18A0.25 0.25 0 0 0 11 17.75L11 17.25A0.25 0.25 0 0 1 11.25 17L11.75 17A0.25 0.25 0 0 1 12 17.25L12 17.75A0.25 0.25 0 0 0 12.25 18L12.75 18A0.25 0.25 0 0 1 13 18.25L13 18.75A0.25 0.25 0 0 1 12.75 19L12.25 19A0.25 0.25 0 0 0 12 19.25L12 20.75A0.25 0.25 0 0 0 12.25 21L12.75 21A0.25 0.25 0 0 0 13 20.75L13 20.25A0.25 0.25 0 0 1 13.25 20L13.75 20A0.25 0.25 0 0 1 14 20.25L14 20.75A0.25 0.25 0 0 0 14.25 21L16.75 21A0.25 0.25 0 0 1 17 21.25L17 21.75A0.25 0.25 0 0 1 16.75 22L15.25 22A0.25 0.25 0 0 0 15 22.25L15 22.75A0.25 0.25 0 0 1 14.75 23L14.25 23A0.25 0.25 0 0 0 14 23.25L14 23.75A0.25 0.25 0 0 0 14.25 24L14.75 24A0.25 0.25 0 0 1 15 24.25L15 24.75A0.25 0.25 0 0 1 14.75 25L12.25 25A0.25 0.25 0 0 1 12 24.75L12 23.25A0.25 0.25 0 0 1 12.25 23L12.75 23A0.25 0.25 0 0 0 13 22.75L13 22.25A0.25 0.25 0 0 0 12.75 22L11.25 22A0.25 0.25 0 0 1 11 21.75L11 21.25A0.25 0.25 0 0 0 10.75 21L10.25 21A0.25 0.25 0 0 1 10 20.75L10 20.25A0.25 0.25 0 0 1 10.25 20L10.75 20A0.25 0.25 0 0 0 11 19.75L11 19.25A0.25 0.25 0 0 0 10.75 19L10.25 19A0.25 0.25 0 0 0 10 19.25L10 19.75A0.25 0.25 0 0 1 9.75 20L9.25 20A0.25 0.25 0 0 1 9 19.75L9 18.25A0.25 0.25 0 0 0 8.75 18L8.25 18A0.25 0.25 0 0 1 8 17.75L8 17.25A0.25 0.25 0 0 1 8.25 17L8.75 17A0.25 0.25 0 0 0 9 16.75L9 16.25A0.25 0.25 0 0 0 8.75 16L6.25 16A0.25 0.25 0 0 1 6 15.75L6 15.25A0.25 0.25 0 0 1 6.25 15L6.75 15A0.25 0.25 0 0 0 7 14.75L7 14.25A0.25 0.25 0 0 0 6.75 14L6.25 14A0.25 0.25 0 0 1 6 13.75L6 13.25A0.25 0.25 0 0 1 6.25 13L7.75 13A0.25 0.25 0 0 1 8 13.25L8 13.75A0.25 0.25 0 0 0 8.25 14L8.75 14A0.25 0.25 0 0 0 9 13.75L9 13.25A0.25 0.25 0 0 1 9.25 13L10.75 13A0.25 0.25 0 0 0 11 12.75L11 12.25A0.25 0.25 0 0 0 10.75 12L8.25 12A0.25 0.25 0 0 1 8 11.75L8 10.25A0.25 0.25 0 0 0 7.75 10L5.25 10A0.25 0.25 0 0 0 5 10.25L5 10.75A0.25 0.25 0 0 1 4.75 11L4.25 11A0.25 0.25 0 0 1 4 10.75L4 10.25A0.25 0.25 0 0 0 3.75 10L3.25 10A0.25 0.25 0 0 1 3 9.75L3 9.25A0.25 0.25 0 0 1 3.25 9L4.75 9A0.25 0.25 0 0 0 5 8.75L5 8.25A0.25 0.25 0 0 0 4.75 8L0.25 8A0.25 0.25 0 0 0 0 8.25L0 9.75A0.25 0.25 0 0 0 0.25 10L2.75 10A0.25 0.25 0 0 1 3 10.25L3 10.75A0.25 0.25 0 0 1 2.75 11L0.25 11A0.25 0.25 0 0 0 0 11.25L0 12.75A0.25 0.25 0 0 0 0.25 13L1.75 13A0.25 0.25 0 0 1 2 13.25L2 14.75A0.25 0.25 0 0 0 2.25 15L2.75 15A0.25 0.25 0 0 1 3 15.25L3 16.75A0.25 0.25 0 0 1 2.75 17L2.25 17A0.25 0.25 0 0 0 2 17.25L2 17.75A0.25 0.25 0 0 1 1.75 18L1.25 18A0.25 0.25 0 0 1 1 17.75L1 16.25A0.25 0.25 0 0 0 0.75 16L0.25 16A0.25 0.25 0 0 0 0 16.25L0 18.75A0.25 0.25 0 0 0 0.25 19L0.75 19A0.25 0.25 0 0 1 1 19.25L1 19.75A0.25 0.25 0 0 0 1.25 20L1.75 20A0.25 0.25 0 0 1 2 20.25L2 20.75A0.25 0.25 0 0 0 2.25 21L2.75 21A0.25 0.25 0 0 0 3 20.75L3 20.25A0.25 0.25 0 0 1 3.25 20L3.75 20A0.25 0.25 0 0 1 4 20.25L4 20.75A0.25 0.25 0 0 0 4.25 21L6.75 21A0.25 0.25 0 0 1 7 21.25L7 21.75A0.25 0.25 0 0 1 6.75 22L6.25 22A0.25 0.25 0 0 0 6 22.25L6 22.75A0.25 0.25 0 0 0 6.25 23L6.75 23A0.25 0.25 0 0 0 7 22.75L7 22.25A0.25 0.25 0 0 1 7.25 22L8.75 22A0.25 0.25 0 0 1 9 22.25L9 22.75A0.25 0.25 0 0 0 9.25 23L9.75 23A0.25 0.25 0 0 1 10 23.25L10 24.75A0.25 0.25 0 0 0 10.25 25L11.75 25A0.25 0.25 0 0 1 12 25.25L12 25.75A0.25 0.25 0 0 0 12.25 26L12.75 26A0.25 0.25 0 0 1 13 26.25L13 26.75A0.25 0.25 0 0 1 12.75 27L12.25 27A0.25 0.25 0 0 0 12 27.25L12 28.75A0.25 0.25 0 0 0 12.25 29L12.75 29A0.25 0.25 0 0 0 13 28.75L13 28.25A0.25 0.25 0 0 1 13.25 28L13.75 28A0.25 0.25 0 0 1 14 28.25L14 28.75A0.25 0.25 0 0 0 14.25 29L14.75 29A0.25 0.25 0 0 1 15 29.25L15 30.75A0.25 0.25 0 0 1 14.75 31L14.25 31A0.25 0.25 0 0 0 14 31.25L14 31.75A0.25 0.25 0 0 0 14.25 32L15.75 32A0.25 0.25 0 0 1 16 32.25L16 32.75A0.25 0.25 0 0 0 16.25 33L16.75 33A0.25 0.25 0 0 0 17 32.75L17 32.25A0.25 0.25 0 0 0 16.75 32L16.25 32A0.25 0.25 0 0 1 16 31.75L16 31.25A0.25 0.25 0 0 1 16.25 31L16.75 31A0.25 0.25 0 0 0 17 30.75L17 30.25A0.25 0.25 0 0 1 17.25 30L17.75 30A0.25 0.25 0 0 1 18 30.25L18 31.75A0.25 0.25 0 0 0 18.25 32L18.75 32A0.25 0.25 0 0 1 19 32.25L19 32.75A0.25 0.25 0 0 0 19.25 33L19.75 33A0.25 0.25 0 0 0 20 32.75L20 32.25A0.25 0.25 0 0 1 20.25 32L23.75 32A0.25 0.25 0 0 1 24 32.25L24 32.75A0.25 0.25 0 0 0 24.25 33L24.75 33A0.25 0.25 0 0 0 25 32.75L25 32.25A0.25 0.25 0 0 0 24.75 32L24.25 32A0.25 0.25 0 0 1 24 31.75L24 31.25A0.25 0.25 0 0 1 24.25 31L26.75 31A0.25 0.25 0 0 0 27 30.75L27 30.25A0.25 0.25 0 0 1 27.25 30L28.75 30A0.25 0.25 0 0 1 29 30.25L29 31.75A0.25 0.25 0 0 0 29.25 32L30.75 32A0.25 0.25 0 0 1 31 32.25L31 32.75A0.25 0.25 0 0 0 31.25 33L31.75 33A0.25 0.25 0 0 0 32 32.75L32 32.25A0.25 0.25 0 0 0 31.75 32L31.25 32A0.25 0.25 0 0 1 31 31.75L31 31.25A0.25 0.25 0 0 0 30.75 31L30.25 31A0.25 0.25 0 0 1 30 30.75L30 30.25A0.25 0.25 0 0 1 30.25 30L32.75 30A0.25 0.25 0 0 0 33 29.75L33 27.25A0.25 0.25 0 0 0 32.75 27L32.25 27A0.25 0.25 0 0 1 32 26.75L32 26.25A0.25 0.25 0 0 1 32.25 26L32.75 26A0.25 0.25 0 0 0 33 25.75L33 24.25A0.25 0.25 0 0 0 32.75 24L32.25 24A0.25 0.25 0 0 0 32 24.25L32 25.75A0.25 0.25 0 0 1 31.75 26L31.25 26A0.25 0.25 0 0 0 31 26.25L31 26.75A0.25 0.25 0 0 1 30.75 27L30.25 27A0.25 0.25 0 0 1 30 26.75L30 25.25A0.25 0.25 0 0 0 29.75 25L29.25 25A0.25 0.25 0 0 1 29 24.75L29 24.25A0.25 0.25 0 0 1 29.25 24L30.75 24A0.25 0.25 0 0 0 31 23.75L31 23.25A0.25 0.25 0 0 1 31.25 23L31.75 23A0.25 0.25 0 0 0 32 22.75L32 22.25A0.25 0.25 0 0 1 32.25 22L32.75 22A0.25 0.25 0 0 0 33 21.75L33 21.25A0.25 0.25 0 0 0 32.75 21L32.25 21A0.25 0.25 0 0 1 32 20.75L32 20.25A0.25 0.25 0 0 0 31.75 20L31.25 20A0.25 0.25 0 0 1 31 19.75L31 19.25A0.25 0.25 0 0 1 31.25 19L31.75 19A0.25 0.25 0 0 0 32 18.75L32 18.25A0.25 0.25 0 0 1 32.25 18L32.75 18A0.25 0.25 0 0 0 33 17.75L33 17.25A0.25 0.25 0 0 0 32.75 17L32.25 17A0.25 0.25 0 0 1 32 16.75L32 16.25A0.25 0.25 0 0 0 31.75 16L31.25 16A0.25 0.25 0 0 1 31 15.75L31 15.25A0.25 0.25 0 0 1 31.25 15L31.75 15A0.25 0.25 0 0 0 32 14.75L32 14.25A0.25 0.25 0 0 1 32.25 14L32.75 14A0.25 0.25 0 0 0 33 13.75L33 13.25A0.25 0.25 0 0 0 32.75 13L31.25 13A0.25 0.25 0 0 0 31 13.25L31 14.75A0.25 0.25 0 0 1 30.75 15L30.25 15A0.25 0.25 0 0 1 30 14.75L30 13.25A0.25 0.25 0 0 0 29.75 13L29.25 13A0.25 0.25 0 0 1 29 12.75L29 12.25A0.25 0.25 0 0 0 28.75 12L28.25 12A0.25 0.25 0 0 1 28 11.75L28 11.25A0.25 0.25 0 0 1 28.25 11L28.75 11A0.25 0.25 0 0 0 29 10.75L29 10.25A0.25 0.25 0 0 0 28.75 10L28.25 10A0.25 0.25 0 0 0 28 10.25L28 10.75A0.25 0.25 0 0 1 27.75 11L27.25 11A0.25 0.25 0 0 0 27 11.25L27 11.75A0.25 0.25 0 0 0 27.25 12L27.75 12A0.25 0.25 0 0 1 28 12.25L28 12.75A0.25 0.25 0 0 0 28.25 13L28.75 13A0.25 0.25 0 0 1 29 13.25L29 13.75A0.25 0.25 0 0 1 28.75 14L28.25 14A0.25 0.25 0 0 0 28 14.25L28 15.75A0.25 0.25 0 0 1 27.75 16L27.25 16A0.25 0.25 0 0 1 27 15.75L27 13.25A0.25 0.25 0 0 0 26.75 13L25.25 13A0.25 0.25 0 0 1 25 12.75L25 12.25A0.25 0.25 0 0 0 24.75 12L24.25 12A0.25 0.25 0 0 1 24 11.75L24 11.25A0.25 0.25 0 0 0 23.75 11L21.25 11A0.25 0.25 0 0 0 21 11.25L21 11.75A0.25 0.25 0 0 1 20.75 12L20.25 12A0.25 0.25 0 0 1 20 11.75L20 11.25A0.25 0.25 0 0 0 19.75 11L19.25 11A0.25 0.25 0 0 0 19 11.25L19 11.75A0.25 0.25 0 0 1 18.75 12L17.25 12A0.25 0.25 0 0 1 17 11.75L17 10.25A0.25 0.25 0 0 0 16.75 10L15.25 10A0.25 0.25 0 0 1 15 9.75L15 9.25A0.25 0.25 0 0 1 15.25 9L17.75 9A0.25 0.25 0 0 1 18 9.25L18 9.75A0.25 0.25 0 0 0 18.25 10L19.75 10A0.25 0.25 0 0 0 20 9.75L20 9.25A0.25 0.25 0 0 1 20.25 9L20.75 9A0.25 0.25 0 0 1 21 9.25L21 9.75A0.25 0.25 0 0 0 21.25 10L23.75 10A0.25 0.25 0 0 0 24 9.75L24 9.25A0.25 0.25 0 0 1 24.25 9L24.75 9A0.25 0.25 0 0 1 25 9.25L25 10.75A0.25 0.25 0 0 0 25.25 11L25.75 11A0.25 0.25 0 0 0 26 10.75L26 10.25A0.25 0.25 0 0 1 26.25 10L26.75 10A0.25 0.25 0 0 0 27 9.75L27 9.25A0.25 0.25 0 0 1 27.25 9L27.75 9A0.25 0.25 0 0 0 28 8.75L28 8.25A0.25 0.25 0 0 0 27.75 8L27.25 8A0.25 0.25 0 0 0 27 8.25L27 8.75A0.25 0.25 0 0 1 26.75 9L26.25 9A0.25 0.25 0 0 1 26 8.75L26 8.25A0.25 0.25 0 0 0 25.75 8L24.25 8A0.25 0.25 0 0 0 24 8.25L24 8.75A0.25 0.25 0 0 1 23.75 9L23.25 9A0.25 0.25 0 0 1 23 8.75L23 8.25A0.25 0.25 0 0 0 22.75 8L22.25 8A0.25 0.25 0 0 1 22 7.75L22 7.25A0.25 0.25 0 0 1 22.25 7L22.75 7A0.25 0.25 0 0 0 23 6.75L23 5.25A0.25 0.25 0 0 1 23.25 5L23.75 5A0.25 0.25 0 0 1 24 5.25L24 6.75A0.25 0.25 0 0 0 24.25 7L24.75 7A0.25 0.25 0 0 0 25 6.75L25 5.25A0.25 0.25 0 0 0 24.75 5L24.25 5A0.25 0.25 0 0 1 24 4.75L24 4.25A0.25 0.25 0 0 0 23.75 4L23.25 4A0.25 0.25 0 0 1 23 3.75L23 2.25A0.25 0.25 0 0 0 22.75 2L21.25 2A0.25 0.25 0 0 1 21 1.75L21 1.25A0.25 0.25 0 0 1 21.25 1L21.75 1A0.25 0.25 0 0 0 22 0.75L22 0.25A0.25 0.25 0 0 0 21.75 0L21.25 0A0.25 0.25 0 0 0 21 0.25L21 0.75A0.25 0.25 0 0 1 20.75 1L20.25 1A0.25 0.25 0 0 1 20 0.75L20 0.25A0.25 0.25 0 0 0 19.75 0L19.25 0A0.25 0.25 0 0 0 19 0.25L19 0.75A0.25 0.25 0 0 1 18.75 1L16.25 1A0.25 0.25 0 0 1 16 0.75L16 0.25A0.25 0.25 0 0 0 15.75 0L15.25 0A0.25 0.25 0 0 0 15 0.25L15 0.75A0.25 0.25 0 0 1 14.75 1L14.25 1A0.25 0.25 0 0 1 14 0.75L14 0.25A0.25 0.25 0 0 0 13.75 0L12.25 0A0.25 0.25 0 0 0 12 0.25ZM23 0.25L23 0.75A0.25 0.25 0 0 0 23.25 1L23.75 1A0.25 0.25 0 0 0 24 0.75L24 0.25A0.25 0.25 0 0 0 23.75 0L23.25 0A0.25 0.25 0 0 0 23 0.25ZM8 1.25L8 1.75A0.25 0.25 0 0 0 8.25 2L8.75 2A0.25 0.25 0 0 0 9 1.75L9 1.25A0.25 0.25 0 0 0 8.75 1L8.25 1A0.25 0.25 0 0 0 8 1.25ZM19 1.25L19 3.75A0.25 0.25 0 0 1 18.75 4L18.25 4A0.25 0.25 0 0 0 18 4.25L18 4.75A0.25 0.25 0 0 0 18.25 5L18.75 5A0.25 0.25 0 0 1 19 5.25L19 8.75A0.25 0.25 0 0 0 19.25 9L19.75 9A0.25 0.25 0 0 0 20 8.75L20 8.25A0.25 0.25 0 0 1 20.25 8L20.75 8A0.25 0.25 0 0 1 21 8.25L21 8.75A0.25 0.25 0 0 0 21.25 9L21.75 9A0.25 0.25 0 0 0 22 8.75L22 8.25A0.25 0.25 0 0 0 21.75 8L21.25 8A0.25 0.25 0 0 1 21 7.75L21 7.25A0.25 0.25 0 0 1 21.25 7L21.75 7A0.25 0.25 0 0 0 22 6.75L22 6.25A0.25 0.25 0 0 0 21.75 6L21.25 6A0.25 0.25 0 0 1 21 5.75L21 4.25A0.25 0.25 0 0 1 21.25 4L21.75 4A0.25 0.25 0 0 0 22 3.75L22 3.25A0.25 0.25 0 0 0 21.75 3L20.25 3A0.25 0.25 0 0 1 20 2.75L20 1.25A0.25 0.25 0 0 0 19.75 1L19.25 1A0.25 0.25 0 0 0 19 1.25ZM14 2.25L14 2.75A0.25 0.25 0 0 0 14.25 3L14.75 3A0.25 0.25 0 0 0 15 2.75L15 2.25A0.25 0.25 0 0 0 14.75 2L14.25 2A0.25 0.25 0 0 0 14 2.25ZM16 2.25L16 2.75A0.25 0.25 0 0 0 16.25 3L17.75 3A0.25 0.25 0 0 0 18 2.75L18 2.25A0.25 0.25 0 0 0 17.75 2L16.25 2A0.25 0.25 0 0 0 16 2.25ZM19 4.25L19 4.75A0.25 0.25 0 0 0 19.25 5L19.75 5A0.25 0.25 0 0 0 20 4.75L20 4.25A0.25 0.25 0 0 0 19.75 4L19.25 4A0.25 0.25 0 0 0 19 4.25ZM9 6.25L9 6.75A0.25 0.25 0 0 0 9.25 7L9.75 7A0.25 0.25 0 0 0 10 6.75L10 6.25A0.25 0.25 0 0 0 9.75 6L9.25 6A0.25 0.25 0 0 0 9 6.25ZM11 6.25L11 6.75A0.25 0.25 0 0 0 11.25 7L11.75 7A0.25 0.25 0 0 0 12 6.75L12 6.25A0.25 0.25 0 0 0 11.75 6L11.25 6A0.25 0.25 0 0 0 11 6.25ZM20 6.25L20 6.75A0.25 0.25 0 0 0 20.25 7L20.75 7A0.25 0.25 0 0 0 21 6.75L21 6.25A0.25 0.25 0 0 0 20.75 6L20.25 6A0.25 0.25 0 0 0 20 6.25ZM10 8.25L10 8.75A0.25 0.25 0 0 0 10.25 9L10.75 9A0.25 0.25 0 0 0 11 8.75L11 8.25A0.25 0.25 0 0 0 10.75 8L10.25 8A0.25 0.25 0 0 0 10 8.25ZM29 8.25L29 8.75A0.25 0.25 0 0 0 29.25 9L29.75 9A0.25 0.25 0 0 0 30 8.75L30 8.25A0.25 0.25 0 0 0 29.75 8L29.25 8A0.25 0.25 0 0 0 29 8.25ZM31 8.25L31 9.75A0.25 0.25 0 0 0 31.25 10L32.75 10A0.25 0.25 0 0 0 33 9.75L33 9.25A0.25 0.25 0 0 0 32.75 9L32.25 9A0.25 0.25 0 0 1 32 8.75L32 8.25A0.25 0.25 0 0 0 31.75 8L31.25 8A0.25 0.25 0 0 0 31 8.25ZM6 11.25L6 11.75A0.25 0.25 0 0 0 6.25 12L6.75 12A0.25 0.25 0 0 0 7 11.75L7 11.25A0.25 0.25 0 0 0 6.75 11L6.25 11A0.25 0.25 0 0 0 6 11.25ZM14 11.25L14 11.75A0.25 0.25 0 0 0 14.25 12L14.75 12A0.25 0.25 0 0 0 15 11.75L15 11.25A0.25 0.25 0 0 0 14.75 11L14.25 11A0.25 0.25 0 0 0 14 11.25ZM30 11.25L30 11.75A0.25 0.25 0 0 0 30.25 12L30.75 12A0.25 0.25 0 0 0 31 11.75L31 11.25A0.25 0.25 0 0 0 30.75 11L30.25 11A0.25 0.25 0 0 0 30 11.25ZM2 12.25L2 12.75A0.25 0.25 0 0 0 2.25 13L3.75 13A0.25 0.25 0 0 0 4 12.75L4 12.25A0.25 0.25 0 0 0 3.75 12L2.25 12A0.25 0.25 0 0 0 2 12.25ZM19 12.25L19 12.75A0.25 0.25 0 0 0 19.25 13L19.75 13A0.25 0.25 0 0 1 20 13.25L20 13.75A0.25 0.25 0 0 1 19.75 14L19.25 14A0.25 0.25 0 0 0 19 14.25L19 16.75A0.25 0.25 0 0 1 18.75 17L15.25 17A0.25 0.25 0 0 0 15 17.25L15 17.75A0.25 0.25 0 0 0 15.25 18L15.75 18A0.25 0.25 0 0 1 16 18.25L16 18.75A0.25 0.25 0 0 1 15.75 19L14.25 19A0.25 0.25 0 0 0 14 19.25L14 19.75A0.25 0.25 0 0 0 14.25 20L16.75 20A0.25 0.25 0 0 1 17 20.25L17 20.75A0.25 0.25 0 0 0 17.25 21L18.75 21A0.25 0.25 0 0 1 19 21.25L19 22.75A0.25 0.25 0 0 0 19.25 23L19.75 23A0.25 0.25 0 0 1 20 23.25L20 23.75A0.25 0.25 0 0 1 19.75 24L18.25 24A0.25 0.25 0 0 1 18 23.75L18 23.25A0.25 0.25 0 0 0 17.75 23L17.25 23A0.25 0.25 0 0 0 17 23.25L17 23.75A0.25 0.25 0 0 1 16.75 24L16.25 24A0.25 0.25 0 0 0 16 24.25L16 24.75A0.25 0.25 0 0 1 15.75 25L15.25 25A0.25 0.25 0 0 0 15 25.25L15 25.75A0.25 0.25 0 0 0 15.25 26L15.75 26A0.25 0.25 0 0 1 16 26.25L16 26.75A0.25 0.25 0 0 0 16.25 27L16.75 27A0.25 0.25 0 0 1 17 27.25L17 27.75A0.25 0.25 0 0 1 16.75 28L16.25 28A0.25 0.25 0 0 0 16 28.25L16 28.75A0.25 0.25 0 0 0 16.25 29L18.75 29A0.25 0.25 0 0 1 19 29.25L19 30.75A0.25 0.25 0 0 0 19.25 31L19.75 31A0.25 0.25 0 0 0 20 30.75L20 29.25A0.25 0.25 0 0 1 20.25 29L20.75 29A0.25 0.25 0 0 1 21 29.25L21 30.75A0.25 0.25 0 0 0 21.25 31L21.75 31A0.25 0.25 0 0 0 22 30.75L22 30.25A0.25 0.25 0 0 1 22.25 30L22.75 30A0.25 0.25 0 0 1 23 30.25L23 30.75A0.25 0.25 0 0 0 23.25 31L23.75 31A0.25 0.25 0 0 0 24 30.75L24 27.25A0.25 0.25 0 0 0 23.75 27L23.25 27A0.25 0.25 0 0 1 23 26.75L23 26.25A0.25 0.25 0 0 1 23.25 26L23.75 26A0.25 0.25 0 0 0 24 25.75L24 25.25A0.25 0.25 0 0 0 23.75 25L22.25 25A0.25 0.25 0 0 1 22 24.75L22 24.25A0.25 0.25 0 0 0 21.75 24L21.25 24A0.25 0.25 0 0 1 21 23.75L21 23.25A0.25 0.25 0 0 1 21.25 23L21.75 23A0.25 0.25 0 0 0 22 22.75L22 22.25A0.25 0.25 0 0 1 22.25 22L22.75 22A0.25 0.25 0 0 1 23 22.25L23 22.75A0.25 0.25 0 0 0 23.25 23L23.75 23A0.25 0.25 0 0 1 24 23.25L24 23.75A0.25 0.25 0 0 0 24.25 24L27.75 24A0.25 0.25 0 0 0 28 23.75L28 23.25A0.25 0.25 0 0 1 28.25 23L29.75 23A0.25 0.25 0 0 0 30 22.75L30 22.25A0.25 0.25 0 0 1 30.25 22L30.75 22A0.25 0.25 0 0 0 31 21.75L31 20.25A0.25 0.25 0 0 0 30.75 20L29.25 20A0.25 0.25 0 0 0 29 20.25L29 20.75A0.25 0.25 0 0 1 28.75 21L27.25 21A0.25 0.25 0 0 1 27 20.75L27 19.25A0.25 0.25 0 0 0 26.75 19L26.25 19A0.25 0.25 0 0 1 26 18.75L26 18.25A0.25 0.25 0 0 0 25.75 18L25.25 18A0.25 0.25 0 0 1 25 17.75L25 17.25A0.25 0.25 0 0 1 25.25 17L26.75 17A0.25 0.25 0 0 1 27 17.25L27 17.75A0.25 0.25 0 0 0 27.25 18L27.75 18A0.25 0.25 0 0 1 28 18.25L28 18.75A0.25 0.25 0 0 0 28.25 19L28.75 19A0.25 0.25 0 0 0 29 18.75L29 17.25A0.25 0.25 0 0 1 29.25 17L29.75 17A0.25 0.25 0 0 1 30 17.25L30 18.75A0.25 0.25 0 0 0 30.25 19L30.75 19A0.25 0.25 0 0 0 31 18.75L31 16.25A0.25 0.25 0 0 0 30.75 16L30.25 16A0.25 0.25 0 0 1 30 15.75L30 15.25A0.25 0.25 0 0 0 29.75 15L29.25 15A0.25 0.25 0 0 0 29 15.25L29 16.75A0.25 0.25 0 0 1 28.75 17L27.25 17A0.25 0.25 0 0 1 27 16.75L27 16.25A0.25 0.25 0 0 0 26.75 16L26.25 16A0.25 0.25 0 0 1 26 15.75L26 14.25A0.25 0.25 0 0 0 25.75 14L25.25 14A0.25 0.25 0 0 1 25 13.75L25 13.25A0.25 0.25 0 0 0 24.75 13L24.25 13A0.25 0.25 0 0 0 24 13.25L24 13.75A0.25 0.25 0 0 1 23.75 14L23.25 14A0.25 0.25 0 0 1 23 13.75L23 12.25A0.25 0.25 0 0 0 22.75 12L21.25 12A0.25 0.25 0 0 0 21 12.25L21 12.75A0.25 0.25 0 0 1 20.75 13L20.25 13A0.25 0.25 0 0 1 20 12.75L20 12.25A0.25 0.25 0 0 0 19.75 12L19.25 12A0.25 0.25 0 0 0 19 12.25ZM3 14.25L3 14.75A0.25 0.25 0 0 0 3.25 15L3.75 15A0.25 0.25 0 0 1 4 15.25L4 15.75A0.25 0.25 0 0 0 4.25 16L4.75 16A0.25 0.25 0 0 1 5 16.25L5 16.75A0.25 0.25 0 0 1 4.75 17L3.25 17A0.25 0.25 0 0 0 3 17.25L3 18.75A0.25 0.25 0 0 0 3.25 19L4.75 19A0.25 0.25 0 0 1 5 19.25L5 19.75A0.25 0.25 0 0 0 5.25 20L6.75 20A0.25 0.25 0 0 1 7 20.25L7 20.75A0.25 0.25 0 0 0 7.25 21L7.75 21A0.25 0.25 0 0 0 8 20.75L8 19.25A0.25 0.25 0 0 0 7.75 19L6.25 19A0.25 0.25 0 0 1 6 18.75L6 18.25A0.25 0.25 0 0 1 6.25 18L6.75 18A0.25 0.25 0 0 0 7 17.75L7 17.25A0.25 0.25 0 0 0 6.75 17L6.25 17A0.25 0.25 0 0 1 6 16.75L6 16.25A0.25 0.25 0 0 0 5.75 16L5.25 16A0.25 0.25 0 0 1 5 15.75L5 15.25A0.25 0.25 0 0 1 5.25 15L5.75 15A0.25 0.25 0 0 0 6 14.75L6 14.25A0.25 0.25 0 0 0 5.75 14L3.25 14A0.25 0.25 0 0 0 3 14.25ZM20 14.25L20 15.75A0.25 0.25 0 0 0 20.25 16L21.75 16A0.25 0.25 0 0 1 22 16.25L22 16.75A0.25 0.25 0 0 1 21.75 17L21.25 17A0.25 0.25 0 0 0 21 17.25L21 18.75A0.25 0.25 0 0 1 20.75 19L20.25 19A0.25 0.25 0 0 0 20 19.25L20 22.75A0.25 0.25 0 0 0 20.25 23L20.75 23A0.25 0.25 0 0 0 21 22.75L21 20.25A0.25 0.25 0 0 1 21.25 20L21.75 20A0.25 0.25 0 0 1 22 20.25L22 20.75A0.25 0.25 0 0 0 22.25 21L22.75 21A0.25 0.25 0 0 1 23 21.25L23 21.75A0.25 0.25 0 0 0 23.25 22L23.75 22A0.25 0.25 0 0 0 24 21.75L24 21.25A0.25 0.25 0 0 0 23.75 21L23.25 21A0.25 0.25 0 0 1 23 20.75L23 20.25A0.25 0.25 0 0 0 22.75 20L22.25 20A0.25 0.25 0 0 1 22 19.75L22 19.25A0.25 0.25 0 0 1 22.25 19L22.75 19A0.25 0.25 0 0 0 23 18.75L23 18.25A0.25 0.25 0 0 1 23.25 18L23.75 18A0.25 0.25 0 0 1 24 18.25L24 19.75A0.25 0.25 0 0 0 24.25 20L24.75 20A0.25 0.25 0 0 0 25 19.75L25 18.25A0.25 0.25 0 0 0 24.75 18L24.25 18A0.25 0.25 0 0 1 24 17.75L24 17.25A0.25 0.25 0 0 0 23.75 17L23.25 17A0.25 0.25 0 0 1 23 16.75L23 16.25A0.25 0.25 0 0 1 23.25 16L24.75 16A0.25 0.25 0 0 0 25 15.75L25 14.25A0.25 0.25 0 0 0 24.75 14L24.25 14A0.25 0.25 0 0 0 24 14.25L24 14.75A0.25 0.25 0 0 1 23.75 15L23.25 15A0.25 0.25 0 0 1 23 14.75L23 14.25A0.25 0.25 0 0 0 22.75 14L20.25 14A0.25 0.25 0 0 0 20 14.25ZM19 17.25L19 17.75A0.25 0.25 0 0 1 18.75 18L18.25 18A0.25 0.25 0 0 0 18 18.25L18 19.75A0.25 0.25 0 0 0 18.25 20L18.75 20A0.25 0.25 0 0 0 19 19.75L19 18.25A0.25 0.25 0 0 1 19.25 18L19.75 18A0.25 0.25 0 0 0 20 17.75L20 17.25A0.25 0.25 0 0 0 19.75 17L19.25 17A0.25 0.25 0 0 0 19 17.25ZM0 21.25L0 24.75A0.25 0.25 0 0 0 0.25 25L0.75 25A0.25 0.25 0 0 0 1 24.75L1 21.25A0.25 0.25 0 0 0 0.75 21L0.25 21A0.25 0.25 0 0 0 0 21.25ZM25 21.25L25 21.75A0.25 0.25 0 0 0 25.25 22L26.75 22A0.25 0.25 0 0 1 27 22.25L27 22.75A0.25 0.25 0 0 0 27.25 23L27.75 23A0.25 0.25 0 0 0 28 22.75L28 22.25A0.25 0.25 0 0 0 27.75 22L27.25 22A0.25 0.25 0 0 1 27 21.75L27 21.25A0.25 0.25 0 0 0 26.75 21L25.25 21A0.25 0.25 0 0 0 25 21.25ZM29 21.25L29 21.75A0.25 0.25 0 0 0 29.25 22L29.75 22A0.25 0.25 0 0 0 30 21.75L30 21.25A0.25 0.25 0 0 0 29.75 21L29.25 21A0.25 0.25 0 0 0 29 21.25ZM4 22.25L4 22.75A0.25 0.25 0 0 1 3.75 23L2.25 23A0.25 0.25 0 0 0 2 23.25L2 23.75A0.25 0.25 0 0 0 2.25 24L3.75 24A0.25 0.25 0 0 1 4 24.25L4 24.75A0.25 0.25 0 0 0 4.25 25L7.75 25A0.25 0.25 0 0 1 8 25.25L8 26.75A0.25 0.25 0 0 0 8.25 27L8.75 27A0.25 0.25 0 0 1 9 27.25L9 27.75A0.25 0.25 0 0 1 8.75 28L8.25 28A0.25 0.25 0 0 0 8 28.25L8 32.75A0.25 0.25 0 0 0 8.25 33L9.75 33A0.25 0.25 0 0 0 10 32.75L10 32.25A0.25 0.25 0 0 1 10.25 32L10.75 32A0.25 0.25 0 0 1 11 32.25L11 32.75A0.25 0.25 0 0 0 11.25 33L11.75 33A0.25 0.25 0 0 0 12 32.75L12 31.25A0.25 0.25 0 0 1 12.25 31L12.75 31A0.25 0.25 0 0 0 13 30.75L13 30.25A0.25 0.25 0 0 0 12.75 30L11.25 30A0.25 0.25 0 0 1 11 29.75L11 28.25A0.25 0.25 0 0 0 10.75 28L10.25 28A0.25 0.25 0 0 1 10 27.75L10 27.25A0.25 0.25 0 0 0 9.75 27L9.25 27A0.25 0.25 0 0 1 9 26.75L9 24.25A0.25 0.25 0 0 0 8.75 24L5.25 24A0.25 0.25 0 0 1 5 23.75L5 22.25A0.25 0.25 0 0 0 4.75 22L4.25 22A0.25 0.25 0 0 0 4 22.25ZM20 24.25L20 25.75A0.25 0.25 0 0 0 20.25 26L20.75 26A0.25 0.25 0 0 0 21 25.75L21 24.25A0.25 0.25 0 0 0 20.75 24L20.25 24A0.25 0.25 0 0 0 20 24.25ZM17 25.25L17 25.75A0.25 0.25 0 0 0 17.25 26L17.75 26A0.25 0.25 0 0 1 18 26.25L18 26.75A0.25 0.25 0 0 0 18.25 27L18.75 27A0.25 0.25 0 0 0 19 26.75L19 25.25A0.25 0.25 0 0 0 18.75 25L17.25 25A0.25 0.25 0 0 0 17 25.25ZM25 25.25L25 27.75A0.25 0.25 0 0 0 25.25 28L27.75 28A0.25 0.25 0 0 0 28 27.75L28 25.25A0.25 0.25 0 0 0 27.75 25L25.25 25A0.25 0.25 0 0 0 25 25.25ZM26 26.25L26 26.75A0.25 0.25 0 0 0 26.25 27L26.75 27A0.25 0.25 0 0 0 27 26.75L27 26.25A0.25 0.25 0 0 0 26.75 26L26.25 26A0.25 0.25 0 0 0 26 26.25ZM14 27.25L14 27.75A0.25 0.25 0 0 0 14.25 28L14.75 28A0.25 0.25 0 0 0 15 27.75L15 27.25A0.25 0.25 0 0 0 14.75 27L14.25 27A0.25 0.25 0 0 0 14 27.25ZM21 27.25L21 27.75A0.25 0.25 0 0 0 21.25 28L21.75 28A0.25 0.25 0 0 1 22 28.25L22 28.75A0.25 0.25 0 0 0 22.25 29L22.75 29A0.25 0.25 0 0 0 23 28.75L23 27.25A0.25 0.25 0 0 0 22.75 27L21.25 27A0.25 0.25 0 0 0 21 27.25ZM19 28.25L19 28.75A0.25 0.25 0 0 0 19.25 29L19.75 29A0.25 0.25 0 0 0 20 28.75L20 28.25A0.25 0.25 0 0 0 19.75 28L19.25 28A0.25 0.25 0 0 0 19 28.25ZM29 28.25L29 29.75A0.25 0.25 0 0 0 29.25 30L29.75 30A0.25 0.25 0 0 0 30 29.75L30 29.25A0.25 0.25 0 0 1 30.25 29L31.75 29A0.25 0.25 0 0 0 32 28.75L32 28.25A0.25 0.25 0 0 0 31.75 28L29.25 28A0.25 0.25 0 0 0 29 28.25ZM9 29.25L9 30.75A0.25 0.25 0 0 0 9.25 31L9.75 31A0.25 0.25 0 0 0 10 30.75L10 29.25A0.25 0.25 0 0 0 9.75 29L9.25 29A0.25 0.25 0 0 0 9 29.25ZM25 29.25L25 29.75A0.25 0.25 0 0 0 25.25 30L26.75 30A0.25 0.25 0 0 0 27 29.75L27 29.25A0.25 0.25 0 0 0 26.75 29L25.25 29A0.25 0.25 0 0 0 25 29.25ZM27 32.25L27 32.75A0.25 0.25 0 0 0 27.25 33L27.75 33A0.25 0.25 0 0 0 28 32.75L28 32.25A0.25 0.25 0 0 0 27.75 32L27.25 32A0.25 0.25 0 0 0 27 32.25ZM0 0L7 0L7 7L0 7ZM1 1L1 6L6 6L6 1ZM5 3.5A1.5 1.5 0 0 1 3.5 5A1.5 1.5 0 0 1 2 3.5A1.5 1.5 0 0 1 3.5 2A1.5 1.5 0 0 1 5 3.5ZM26 0L33 0L33 7L26 7ZM27 1L27 6L32 6L32 1ZM31 3.5A1.5 1.5 0 0 1 29.5 5A1.5 1.5 0 0 1 28 3.5A1.5 1.5 0 0 1 29.5 2A1.5 1.5 0 0 1 31 3.5ZM0 26L7 26L7 33L0 33ZM1 27L1 32L6 32L6 27ZM5 29.5A1.5 1.5 0 0 1 3.5 31A1.5 1.5 0 0 1 2 29.5A1.5 1.5 0 0 1 3.5 28A1.5 1.5 0 0 1 5 29.5Z" fill="#000000"/></g></g></svg>
